<svg version="1.1" id="Layer_1" xmlns="http://www.w3.org/2000/svg" xmlns:xlink="http://www.w3.org/1999/xlink" x="0px" y="0px"
	 width="100%" viewBox="0 0 474 266" enable-background="new 0 0 474 266" xml:space="preserve">
<path fill="#4C789D" opacity="1.000000" stroke="none" 
	d="
M385.000000,267.000000 
	C268.645782,267.000000 152.291550,267.000000 35.715828,266.722809 
	C39.071079,265.526489 42.647812,264.607391 46.224548,263.688263 
	C46.242817,263.202362 46.261086,262.716461 46.279354,262.230530 
	C43.475567,260.928009 40.781483,259.215973 37.839859,258.427948 
	C34.272633,257.472290 33.322468,255.365997 32.811947,252.019211 
	C32.166245,247.786224 31.299314,243.394073 29.473650,239.574402 
	C25.741526,231.766068 23.891047,223.811905 23.921858,215.114243 
	C24.088854,167.971756 23.964861,120.828323 24.058458,73.685448 
	C24.067657,69.051697 23.822464,63.967674 25.570936,59.898586 
	C27.864832,54.560181 28.481354,49.170139 29.616346,43.688026 
	C30.396032,39.922085 30.362463,34.332630 35.763947,33.250839 
	C39.726612,32.457207 41.054157,30.469894 41.072269,26.791327 
	C41.091518,22.883482 43.316303,21.089468 47.110107,21.054590 
	C50.941109,21.019371 54.812908,21.312572 58.587013,20.833321 
	C60.650570,20.571285 63.227867,19.512892 64.397041,17.939442 
	C68.209129,12.809222 74.051224,11.449368 79.866478,14.424894 
	C82.550720,15.798356 85.746048,16.891006 88.710976,16.894238 
	C200.987961,17.016613 313.265137,17.014185 425.542114,16.898350 
	C428.351532,16.895452 431.120911,15.194995 433.981049,14.726823 
	C436.031769,14.391150 438.343719,14.340179 440.294281,14.948002 
	C446.349121,16.834751 451.437195,21.159452 458.343750,21.117983 
	C465.410004,21.075556 472.401550,21.817184 475.000000,13.000000 
	C475.000000,24.020895 475.000000,35.041790 474.726746,46.769222 
	C473.449371,50.334103 472.445282,53.192440 471.441223,56.050781 
	C470.884705,55.982704 470.328186,55.914631 469.771667,55.846554 
	C469.510925,53.651360 469.403107,51.423977 468.949646,49.269329 
	C468.414581,46.726734 468.335052,43.475475 466.721802,41.897858 
	C463.165009,38.419628 459.143494,34.851559 454.622131,33.066887 
	C448.891052,30.804699 442.477844,29.173904 436.355286,29.162516 
	C318.054382,28.942478 199.752701,29.112099 81.452034,28.835209 
	C68.830383,28.805668 58.137138,31.449747 49.650082,41.128963 
	C46.967316,44.188576 42.963848,46.507599 41.355320,49.992100 
	C39.045357,54.996078 37.216484,60.750504 37.185314,66.196045 
	C36.884892,118.680115 36.978176,171.166626 37.075924,223.652237 
	C37.081348,226.566208 38.167690,229.470001 38.666634,232.392929 
	C39.642532,238.109985 44.385490,241.393097 47.091949,245.888443 
	C50.199768,251.050430 53.439518,253.637817 59.320827,253.063431 
	C60.447739,252.953369 61.625027,253.312531 62.774387,253.486191 
	C72.708321,254.987167 82.636688,257.768219 92.575058,257.803253 
	C186.715057,258.135559 280.856720,258.001038 374.997894,258.002045 
	C377.330566,258.002075 379.771057,257.580017 381.970032,258.125610 
	C385.075806,258.896149 388.003021,260.386414 390.457458,261.352783 
	C388.108917,263.782990 386.554474,265.391479 385.000000,267.000000 
z"/>
<path fill="#467297" opacity="1.000000" stroke="none" 
	d="
M475.000000,12.520824 
	C472.401550,21.817184 465.410004,21.075556 458.343750,21.117983 
	C451.437195,21.159452 446.349121,16.834751 440.294281,14.948002 
	C438.343719,14.340179 436.031769,14.391150 433.981049,14.726823 
	C431.120911,15.194995 428.351532,16.895452 425.542114,16.898350 
	C313.265137,17.014185 200.987961,17.016613 88.710976,16.894238 
	C85.746048,16.891006 82.550720,15.798356 79.866478,14.424894 
	C74.051224,11.449368 68.209129,12.809222 64.397041,17.939442 
	C63.227867,19.512892 60.650570,20.571285 58.587013,20.833321 
	C54.812908,21.312572 50.941109,21.019371 47.110107,21.054590 
	C43.316303,21.089468 41.091518,22.883482 41.072269,26.791327 
	C41.054157,30.469894 39.726612,32.457207 35.763947,33.250839 
	C30.362463,34.332630 30.396032,39.922085 29.616346,43.688026 
	C28.481354,49.170139 27.864832,54.560181 25.570936,59.898586 
	C23.822464,63.967674 24.067657,69.051697 24.058458,73.685448 
	C23.964861,120.828323 24.088854,167.971756 23.921858,215.114243 
	C23.891047,223.811905 25.741526,231.766068 29.473650,239.574402 
	C31.299314,243.394073 32.166245,247.786224 32.811947,252.019211 
	C33.322468,255.365997 34.272633,257.472290 37.839859,258.427948 
	C40.781483,259.215973 43.475567,260.928009 46.279354,262.230530 
	C46.261086,262.716461 46.242817,263.202362 46.224548,263.688263 
	C42.647812,264.607391 39.071079,265.526489 35.247169,266.722809 
	C28.645601,267.000000 22.291203,267.000000 15.702306,266.728394 
	C17.489328,265.830261 19.708069,265.531311 21.468641,264.471375 
	C22.825399,263.654541 24.085203,261.997955 24.451965,260.487427 
	C24.650326,259.670502 22.993570,257.567993 21.990726,257.436005 
	C17.105551,256.793213 16.863064,253.513092 16.993189,249.777710 
	C17.114790,246.287003 17.282356,242.789185 17.171484,239.302719 
	C17.115984,237.557465 16.580233,235.803268 16.094015,234.101028 
	C15.124633,230.707199 13.146861,227.349472 13.135374,223.971558 
	C12.947472,168.720673 12.941494,113.468742 13.143570,58.217960 
	C13.156452,54.695858 15.222426,51.186028 16.305199,47.661854 
	C17.614052,43.401855 22.208754,39.756191 19.731810,34.803593 
	C14.983350,25.309153 17.241430,19.484173 27.372458,17.167589 
	C30.775097,16.389532 32.412357,14.804274 33.203136,11.378476 
	C33.588436,9.709298 35.643845,8.348327 37.111347,7.035779 
	C37.966942,6.270528 39.154705,5.876661 40.534214,5.131365 
	C38.646030,3.410940 37.323013,2.205470 36.000000,1.000000 
	C182.333328,1.000000 328.666656,1.000000 475.000000,1.000000 
	C475.000000,4.715787 475.000000,8.378718 475.000000,12.520824 
z"/>
<path fill="#4F7AA1" opacity="1.000000" stroke="none" 
	d="
M385.444153,267.000000 
	C386.554474,265.391479 388.108917,263.782990 390.457458,261.352783 
	C388.003021,260.386414 385.075806,258.896149 381.970032,258.125610 
	C379.771057,257.580017 377.330566,258.002075 374.997894,258.002045 
	C280.856720,258.001038 186.715057,258.135559 92.575058,257.803253 
	C82.636688,257.768219 72.708321,254.987167 62.774387,253.486191 
	C61.625027,253.312531 60.447739,252.953369 59.320827,253.063431 
	C53.439518,253.637817 50.199768,251.050430 47.091949,245.888443 
	C44.385490,241.393097 39.642532,238.109985 38.666634,232.392929 
	C38.167690,229.470001 37.081348,226.566208 37.075924,223.652237 
	C36.978176,171.166626 36.884892,118.680115 37.185314,66.196045 
	C37.216484,60.750504 39.045357,54.996078 41.355320,49.992100 
	C42.963848,46.507599 46.967316,44.188576 49.650082,41.128963 
	C58.137138,31.449747 68.830383,28.805668 81.452034,28.835209 
	C199.752701,29.112099 318.054382,28.942478 436.355286,29.162516 
	C442.477844,29.173904 448.891052,30.804699 454.622131,33.066887 
	C459.143494,34.851559 463.165009,38.419628 466.721802,41.897858 
	C468.335052,43.475475 468.414581,46.726734 468.949646,49.269329 
	C469.403107,51.423977 469.510925,53.651360 469.771667,55.846554 
	C470.328186,55.914631 470.884705,55.982704 471.441223,56.050781 
	C472.445282,53.192440 473.449371,50.334103 474.726746,47.237881 
	C475.000000,109.020897 475.000000,171.041794 474.701294,233.399872 
	C471.010101,231.699677 469.156006,233.017441 468.201721,236.510117 
	C467.899139,237.617615 467.587830,239.402557 466.892700,239.616333 
	C460.889221,241.462387 458.327576,246.702957 454.347321,250.737320 
	C450.306519,254.833008 444.242493,258.904266 436.951996,256.144318 
	C435.199127,255.480743 432.993378,256.013428 431.117462,255.645660 
	C431.612244,254.369537 432.252594,253.461594 432.316162,252.514954 
	C432.797668,245.343933 437.136261,243.221100 443.672455,242.812073 
	C448.767761,242.493210 453.784729,240.999054 458.849915,240.102936 
	C464.575378,239.089996 464.668640,234.224716 465.358856,230.134155 
	C466.023590,226.194611 462.646973,225.458069 459.734253,224.439545 
	C457.114441,223.523453 454.646271,222.173752 452.129089,220.740295 
	C452.364929,219.970306 452.582916,219.475357 453.111389,219.079956 
	C454.904907,219.750473 456.387909,220.321411 458.665009,221.198059 
	C459.862030,217.071304 461.630096,213.500534 461.825500,209.845657 
	C462.509552,197.051331 462.899292,184.229004 462.950928,171.415482 
	C463.090607,136.753555 462.979279,102.090660 463.032471,67.428246 
	C463.037292,64.281906 463.253235,61.089371 463.817535,57.999809 
	C465.119781,50.869450 464.571777,49.999573 457.489166,48.721893 
	C454.475098,48.178169 451.501923,48.062233 449.821960,44.290768 
	C446.652466,37.175079 441.499420,32.898705 432.857788,32.909157 
	C315.705414,33.050903 198.552765,32.986664 81.400269,33.080143 
	C77.470467,33.083279 73.419373,33.815586 69.665123,34.981678 
	C67.858086,35.542957 65.443016,37.819427 65.316086,39.473637 
	C64.799988,46.199986 61.201836,48.814487 54.949860,48.979000 
	C50.824924,49.087543 49.113369,51.426643 49.015301,55.435051 
	C48.742561,66.582741 48.080318,77.726654 48.047832,88.873444 
	C47.927883,130.034805 47.948242,171.196854 48.049442,212.358322 
	C48.067017,219.504669 48.732067,226.649429 49.097244,233.794952 
	C49.284275,237.454651 50.964848,239.745636 54.811298,240.108643 
	C61.434563,240.733719 68.070747,241.261658 74.668655,242.091553 
	C76.656357,242.341568 79.841698,243.026199 80.244385,244.248047 
	C82.308006,250.509598 87.101929,250.022003 92.007668,250.020599 
	C185.163116,249.993958 278.318573,249.998978 371.474030,250.010284 
	C374.638336,250.010666 377.824249,250.384644 380.956757,250.102966 
	C382.280060,249.983978 384.150452,248.893799 384.627411,247.762436 
	C385.969818,244.578140 387.236267,241.190247 387.543823,237.793091 
	C387.811340,234.838165 387.233704,231.563904 386.141693,228.778885 
	C383.813385,222.840897 378.556030,224.784790 374.113892,224.640839 
	C373.428070,220.836761 373.695953,216.534805 371.693420,214.100906 
	C367.788116,209.354416 369.351044,204.666687 369.315887,199.868637 
	C372.379181,199.868637 374.909790,199.868637 377.799866,199.806305 
	C378.393127,201.061768 379.246674,203.201706 378.762299,203.566879 
	C374.990875,206.410110 376.858521,208.343460 378.773499,211.482483 
	C382.200897,217.100632 388.554138,218.003464 393.057556,222.146118 
	C394.708496,228.597595 396.259552,234.751556 397.772400,241.288452 
	C396.574097,245.888138 394.308502,250.170044 394.552216,254.304047 
	C394.817596,258.805115 395.424133,262.972290 393.000000,267.000000 
	C390.629425,267.000000 388.258881,267.000000 385.444153,267.000000 
z"/>
<path fill="#447095" opacity="1.000000" stroke="none" 
	d="
M35.531342,1.000000 
	C37.323013,2.205470 38.646030,3.410940 40.534214,5.131365 
	C39.154705,5.876661 37.966942,6.270528 37.111347,7.035779 
	C35.643845,8.348327 33.588436,9.709298 33.203136,11.378476 
	C32.412357,14.804274 30.775097,16.389532 27.372458,17.167589 
	C17.241430,19.484173 14.983350,25.309153 19.731810,34.803593 
	C22.208754,39.756191 17.614052,43.401855 16.305199,47.661854 
	C15.222426,51.186028 13.156452,54.695858 13.143570,58.217960 
	C12.941494,113.468742 12.947472,168.720673 13.135374,223.971558 
	C13.146861,227.349472 15.124633,230.707199 16.094015,234.101028 
	C16.580233,235.803268 17.115984,237.557465 17.171484,239.302719 
	C17.282356,242.789185 17.114790,246.287003 16.993189,249.777710 
	C16.863064,253.513092 17.105551,256.793213 21.990726,257.436005 
	C22.993570,257.567993 24.650326,259.670502 24.451965,260.487427 
	C24.085203,261.997955 22.825399,263.654541 21.468641,264.471375 
	C19.708069,265.531311 17.489328,265.830261 15.233904,266.728394 
	C10.339822,267.000000 5.679643,267.000000 1.055005,267.000000 
	C1.055005,178.333313 1.055005,89.666641 1.055005,1.000000 
	C12.427567,1.000000 23.745125,1.000000 35.531342,1.000000 
z"/>
<path fill="#0C2016" opacity="1.000000" stroke="none" 
	d="
M392.957642,221.848587 
	C388.554138,218.003464 382.200897,217.100632 378.773499,211.482483 
	C376.858521,208.343460 374.990875,206.410110 378.762299,203.566879 
	C379.246674,203.201706 378.393127,201.061768 377.933350,199.427185 
	C377.221863,196.977051 376.736359,194.843735 376.250885,192.710434 
	C375.772797,192.790710 375.294739,192.871002 374.816681,192.951294 
	C374.746918,193.469284 374.677124,193.987289 374.607361,194.505280 
	C375.435822,194.501007 376.789948,194.805023 377.003815,194.440323 
	C378.058319,192.642303 378.538605,190.473816 379.729584,188.796982 
	C381.832458,185.836304 383.942902,181.264542 386.698517,180.733871 
	C391.806244,179.750244 396.385223,177.983429 401.323059,175.884399 
	C404.176331,175.668533 406.712433,175.081375 409.184540,175.281982 
	C416.553741,175.880066 424.423157,173.576691 431.017639,178.993805 
	C434.731384,182.044525 438.615509,184.887878 442.468323,188.103516 
	C443.050873,188.833267 443.588013,189.284180 444.249878,190.052414 
	C445.059631,191.525894 445.744659,192.682053 446.218018,194.051147 
	C446.057831,197.917709 446.696381,201.682678 446.029236,205.199997 
	C444.908356,211.109131 446.994263,218.377701 440.067261,222.184952 
	C436.901550,223.924927 433.486725,225.211700 429.637238,226.737213 
	C427.694153,227.201859 426.298737,227.633316 424.772797,227.820007 
	C423.462646,226.793304 422.283051,226.011353 421.119293,225.239914 
	C421.444336,223.901947 421.770630,222.558945 422.093170,221.231354 
	C415.728027,219.405670 412.802795,221.565216 412.174622,228.290833 
	C409.688416,231.425430 407.390533,234.267166 404.971130,237.496887 
	C405.202881,238.457230 405.556122,239.029572 405.958374,239.528076 
	C406.007355,239.454224 405.859711,239.356140 405.450958,239.226730 
	C401.093018,243.927933 401.370514,249.311890 402.976593,255.278229 
	C403.925507,258.229675 404.597198,260.931061 405.923401,263.259674 
	C406.792358,264.785461 408.608215,265.771973 410.000000,267.000000 
	C404.645081,267.000000 399.290131,267.000000 393.467590,267.000000 
	C395.424133,262.972290 394.817596,258.805115 394.552216,254.304047 
	C394.308502,250.170044 396.574097,245.888138 397.918457,240.943573 
	C398.843353,233.764175 399.583984,227.312576 400.443939,219.821640 
	C396.866211,220.790329 394.911926,221.319458 392.957642,221.848587 
M388.740601,184.932877 
	C385.003693,186.017487 382.720612,188.181671 382.833588,192.390762 
	C382.916992,195.498550 382.872131,198.621109 382.664001,201.722305 
	C382.438416,205.083267 384.197113,206.699326 387.121277,205.929169 
	C392.362396,204.548813 397.968414,207.775330 403.352966,202.630524 
	C405.974884,200.125336 413.197052,202.068970 418.248291,202.703415 
	C419.693176,202.884903 420.810028,205.547348 422.116302,207.038010 
	C422.537231,207.518326 423.027527,207.990463 423.580719,208.293579 
	C426.996338,210.165070 430.315155,212.303619 433.916840,213.712631 
	C436.251770,214.626068 439.271271,216.725449 441.441559,213.218979 
	C444.098297,208.926620 442.795898,193.967880 439.119568,189.351639 
	C437.938049,188.001740 436.941589,186.408920 435.543213,185.343781 
	C429.287964,180.579269 422.685608,178.218323 414.288361,178.598099 
	C405.303619,179.004456 397.138885,180.569580 388.740601,184.932877 
M403.027313,222.502350 
	C403.736298,223.999786 404.682465,226.860535 405.117676,226.784821 
	C409.717865,225.984390 410.186249,221.971848 411.290527,218.531540 
	C406.210938,214.555984 404.381897,215.322128 403.027313,222.502350 
M424.500824,221.517029 
	C424.500824,221.517029 424.481873,221.456238 424.500824,221.517029 
z"/>
<path fill="#4C789D" opacity="1.000000" stroke="none" 
	d="
M430.995911,255.995941 
	C432.993378,256.013428 435.199127,255.480743 436.951996,256.144318 
	C444.242493,258.904266 450.306519,254.833008 454.347321,250.737320 
	C458.327576,246.702957 460.889221,241.462387 466.892700,239.616333 
	C467.587830,239.402557 467.899139,237.617615 468.201721,236.510117 
	C469.156006,233.017441 471.010101,231.699677 474.701294,233.868530 
	C475.000000,244.949631 475.000000,255.899246 475.000000,267.000000 
	C454.312653,267.000000 433.625000,267.000000 412.391113,266.615814 
	C411.157104,263.162903 410.469330,260.094147 410.195923,257.016998 
	C412.406860,256.672119 414.203430,256.335693 416.450012,255.998489 
	C419.600189,255.998047 422.300323,255.998352 425.123901,256.029663 
	C425.247345,256.060638 425.626587,256.073578 425.626587,256.073578 
	C425.626587,256.073578 425.999512,255.998657 426.415955,255.997986 
	C428.220245,255.996857 429.608093,255.996414 430.995911,255.995941 
z"/>
<path fill="#37536C" opacity="1.000000" stroke="none" 
	d="
M409.781555,257.025421 
	C410.469330,260.094147 411.157104,263.162903 411.922424,266.615814 
	C411.555542,267.000000 411.111115,267.000000 410.333313,267.000000 
	C408.608215,265.771973 406.792358,264.785461 405.923401,263.259674 
	C404.597198,260.931061 403.925507,258.229675 402.980438,254.886108 
	C403.943207,249.175827 404.901459,244.265976 405.859711,239.356140 
	C405.859711,239.356140 406.007355,239.454224 405.921844,239.195435 
	C405.588440,238.327377 405.340546,237.718140 405.092651,237.108902 
	C407.390533,234.267166 409.688416,231.425430 412.345154,228.457047 
	C413.305237,228.703400 413.906433,229.076416 414.507629,229.449417 
	C415.633270,225.634064 417.097778,227.495316 418.763428,229.092972 
	C419.642883,229.936569 420.879547,230.407806 421.756287,231.238708 
	C421.033508,231.949509 420.509399,232.468750 419.719604,233.189453 
	C414.177429,236.843689 411.413666,241.828384 410.429474,248.348907 
	C410.126007,251.488342 409.953796,254.256882 409.781555,257.025421 
z"/>
<path fill="#5582AB" opacity="1.000000" stroke="none" 
	d="
M400.976624,175.873199 
	C396.385223,177.983429 391.806244,179.750244 386.698517,180.733871 
	C383.942902,181.264542 381.832458,185.836304 379.729584,188.796982 
	C378.538605,190.473816 378.058319,192.642303 377.003815,194.440323 
	C376.789948,194.805023 375.435822,194.501007 374.607361,194.505280 
	C374.677124,193.987289 374.746918,193.469284 374.816681,192.951294 
	C375.294739,192.871002 375.772797,192.790710 376.250885,192.710434 
	C376.736359,194.843735 377.221863,196.977051 377.573883,199.489502 
	C374.909790,199.868637 372.379181,199.868637 369.315887,199.868637 
	C369.351044,204.666687 367.788116,209.354416 371.693420,214.100906 
	C373.695953,216.534805 373.428070,220.836761 373.640472,224.644012 
	C273.612457,224.995743 174.130203,224.999359 74.647949,224.997849 
	C65.247887,224.997711 65.004349,224.762558 65.003090,215.595291 
	C64.996613,168.270325 65.014679,120.945351 64.975037,73.620422 
	C64.971428,69.317192 64.656075,65.077637 70.502769,64.251305 
	C71.172432,64.156670 72.144798,63.284668 72.260727,62.643620 
	C73.398964,56.348850 78.151611,56.989120 82.675980,56.989628 
	C198.822113,57.002621 314.968262,56.998863 431.114380,57.001659 
	C440.843536,57.001896 440.991516,57.150337 440.998322,66.667000 
	C441.024658,103.493652 441.045135,140.320297 440.768005,177.225464 
	C433.328003,177.543671 433.122711,177.548752 432.960785,171.008865 
	C432.838318,166.060867 430.398438,164.136414 425.797913,164.142319 
	C419.803894,164.149994 413.807770,164.231796 407.816559,164.099472 
	C402.711395,163.986725 401.334259,167.368179 400.709839,171.399323 
	C400.486328,172.842209 400.870056,174.379181 400.976624,175.873199 
z"/>
<path fill="#537EA7" opacity="1.000000" stroke="none" 
	d="
M441.067810,177.146957 
	C441.045135,140.320297 441.024658,103.493652 440.998322,66.667000 
	C440.991516,57.150337 440.843536,57.001896 431.114380,57.001659 
	C314.968262,56.998863 198.822113,57.002621 82.675980,56.989628 
	C78.151611,56.989120 73.398964,56.348850 72.260727,62.643620 
	C72.144798,63.284668 71.172432,64.156670 70.502769,64.251305 
	C64.656075,65.077637 64.971428,69.317192 64.975037,73.620422 
	C65.014679,120.945351 64.996613,168.270325 65.003090,215.595291 
	C65.004349,224.762558 65.247887,224.997711 74.647949,224.997849 
	C174.130203,224.999359 273.612457,224.995743 373.568115,224.990356 
	C378.556030,224.784790 383.813385,222.840897 386.141693,228.778885 
	C387.233704,231.563904 387.811340,234.838165 387.543823,237.793091 
	C387.236267,241.190247 385.969818,244.578140 384.627411,247.762436 
	C384.150452,248.893799 382.280060,249.983978 380.956757,250.102966 
	C377.824249,250.384644 374.638336,250.010666 371.474030,250.010284 
	C278.318573,249.998978 185.163116,249.993958 92.007668,250.020599 
	C87.101929,250.022003 82.308006,250.509598 80.244385,244.248047 
	C79.841698,243.026199 76.656357,242.341568 74.668655,242.091553 
	C68.070747,241.261658 61.434563,240.733719 54.811298,240.108643 
	C50.964848,239.745636 49.284275,237.454651 49.097244,233.794952 
	C48.732067,226.649429 48.067017,219.504669 48.049442,212.358322 
	C47.948242,171.196854 47.927883,130.034805 48.047832,88.873444 
	C48.080318,77.726654 48.742561,66.582741 49.015301,55.435051 
	C49.113369,51.426643 50.824924,49.087543 54.949860,48.979000 
	C61.201836,48.814487 64.799988,46.199986 65.316086,39.473637 
	C65.443016,37.819427 67.858086,35.542957 69.665123,34.981678 
	C73.419373,33.815586 77.470467,33.083279 81.400269,33.080143 
	C198.552765,32.986664 315.705414,33.050903 432.857788,32.909157 
	C441.499420,32.898705 446.652466,37.175079 449.821960,44.290768 
	C451.501923,48.062233 454.475098,48.178169 457.489166,48.721893 
	C464.571777,49.999573 465.119781,50.869450 463.817535,57.999809 
	C463.253235,61.089371 463.037292,64.281906 463.032471,67.428246 
	C462.979279,102.090660 463.090607,136.753555 462.950928,171.415482 
	C462.899292,184.229004 462.509552,197.051331 461.825500,209.845657 
	C461.630096,213.500534 459.862030,217.071304 458.665009,221.198059 
	C456.387909,220.321411 454.904907,219.750473 453.142517,218.671814 
	C453.183014,214.458755 453.502899,210.753403 453.952209,206.803741 
	C453.994812,205.690384 453.907959,204.821365 453.828003,203.636200 
	C453.834167,202.898453 453.833405,202.476837 454.007202,201.717957 
	C454.386566,199.880508 454.591431,198.380341 454.864746,196.612610 
	C453.573975,195.293457 452.214813,194.241867 450.848328,193.180481 
	C450.841003,193.170715 450.829926,193.148941 450.732849,192.820007 
	C449.666534,190.276962 447.703766,187.965454 447.909454,185.866486 
	C448.599609,178.824768 447.889526,177.539124 441.067810,177.146957 
z"/>
<path fill="#537EA7" opacity="1.000000" stroke="none" 
	d="
M410.560699,247.978027 
	C411.413666,241.828384 414.177429,236.843689 420.098450,233.167770 
	C425.055511,232.559387 429.431061,232.498489 433.658844,231.677124 
	C436.571289,231.111267 439.279053,229.491974 442.445984,228.292160 
	C443.554199,228.192627 444.294739,228.144424 445.292786,228.138901 
	C446.297546,227.089157 447.044830,225.996750 447.813477,224.866638 
	C447.834808,224.828934 447.912415,224.790329 448.223755,224.766205 
	C449.375610,224.219574 450.216156,223.697067 451.240295,222.933716 
	C451.653015,222.133698 451.882111,221.574509 452.111206,221.015305 
	C454.646271,222.173752 457.114441,223.523453 459.734253,224.439545 
	C462.646973,225.458069 466.023590,226.194611 465.358856,230.134155 
	C464.668640,234.224716 464.575378,239.089996 458.849915,240.102936 
	C453.784729,240.999054 448.767761,242.493210 443.672455,242.812073 
	C437.136261,243.221100 432.797668,245.343933 432.316162,252.514954 
	C432.252594,253.461594 431.612244,254.369537 431.117462,255.645676 
	C429.608093,255.996414 428.220245,255.996857 426.166199,255.997589 
	C425.500000,255.997849 425.000488,255.998657 425.000488,255.998657 
	C422.300323,255.998352 419.600189,255.998047 416.229431,255.713394 
	C413.892761,252.945374 412.226746,250.461700 410.560699,247.978027 
z"/>
<path fill="#37536C" opacity="1.000000" stroke="none" 
	d="
M452.129089,220.740295 
	C451.882111,221.574509 451.653015,222.133698 450.931793,222.970261 
	C449.597260,223.761871 448.754852,224.276108 447.912415,224.790329 
	C447.912415,224.790329 447.834808,224.828934 447.561096,225.025818 
	C446.536682,226.180542 445.786011,227.138382 445.035309,228.096237 
	C444.294739,228.144424 443.554199,228.192627 442.077087,228.263977 
	C437.462738,228.881866 433.308472,231.424500 430.184906,226.704025 
	C433.486725,225.211700 436.901550,223.924927 440.067261,222.184952 
	C446.994263,218.377701 444.908356,211.109131 446.029236,205.199997 
	C446.696381,201.682678 446.057831,197.917709 446.368469,193.918793 
	C448.097076,193.432007 449.463501,193.290466 450.829926,193.148941 
	C450.829926,193.148941 450.841003,193.170715 450.946838,193.448990 
	C451.613068,194.501923 452.173462,195.276566 452.774231,196.438828 
	C453.153961,198.569366 453.493317,200.312302 453.832642,202.055222 
	C453.833405,202.476837 453.834167,202.898453 453.682007,203.875244 
	C453.626953,205.302979 453.724854,206.175522 453.822754,207.048065 
	C453.502899,210.753403 453.183014,214.458755 452.832031,218.572235 
	C452.582916,219.475357 452.364929,219.970306 452.129089,220.740295 
z"/>
<path fill="#447095" opacity="1.000000" stroke="none" 
	d="
M393.057556,222.146118 
	C394.911926,221.319458 396.866211,220.790329 400.443939,219.821640 
	C399.583984,227.312576 398.843353,233.764175 397.956665,240.560638 
	C396.259552,234.751556 394.708496,228.597595 393.057556,222.146118 
z"/>
<path fill="#3A9A29" opacity="1.000000" stroke="none" 
	d="
M439.537537,189.939926 
	C442.795898,193.967880 444.098297,208.926620 441.441559,213.218979 
	C439.271271,216.725449 436.251770,214.626068 433.916840,213.712631 
	C430.315155,212.303619 426.996338,210.165070 423.580719,208.293579 
	C423.027527,207.990463 422.537231,207.518326 422.116302,207.038010 
	C420.810028,205.547348 419.693176,202.884903 418.248291,202.703415 
	C413.197052,202.068970 405.974884,200.125336 403.352966,202.630524 
	C397.968414,207.775330 392.362396,204.548813 387.121277,205.929169 
	C384.197113,206.699326 382.438416,205.083267 382.664001,201.722305 
	C382.872131,198.621109 382.916992,195.498550 382.833588,192.390762 
	C382.720612,188.181671 385.003693,186.017487 389.447327,185.075989 
	C392.933899,185.895035 395.685883,186.743591 398.501434,187.198624 
	C401.348236,187.658722 404.387817,187.280746 407.111450,188.069458 
	C411.847504,189.440903 416.403595,191.432556 421.039032,193.153595 
	C423.315125,193.998672 425.577087,194.893188 427.891357,195.619034 
	C428.932281,195.945511 430.398315,196.414719 431.132904,195.956253 
	C434.049927,194.135818 436.754333,191.974762 439.537537,189.939926 
z"/>
<path fill="#447095" opacity="1.000000" stroke="none" 
	d="
M450.732849,192.820007 
	C449.463501,193.290466 448.097076,193.432007 446.580170,193.705872 
	C445.744659,192.682053 445.059631,191.525894 444.186646,189.788193 
	C443.473419,188.745987 442.948151,188.285324 442.422882,187.824677 
	C438.615509,184.887878 434.731384,182.044525 431.017639,178.993805 
	C424.423157,173.576691 416.553741,175.880066 409.184540,175.281982 
	C406.712433,175.081375 404.176331,175.668533 401.323059,175.884399 
	C400.870056,174.379181 400.486328,172.842209 400.709839,171.399323 
	C401.334259,167.368179 402.711395,163.986725 407.816559,164.099472 
	C413.807770,164.231796 419.803894,164.149994 425.797913,164.142319 
	C430.398438,164.136414 432.838318,166.060867 432.960785,171.008865 
	C433.122711,177.548752 433.328003,177.543671 440.768005,177.225464 
	C447.889526,177.539124 448.599609,178.824768 447.909454,185.866486 
	C447.703766,187.965454 449.666534,190.276962 450.732849,192.820007 
M417.125031,168.077591 
	C417.125031,168.077591 416.881317,167.893478 416.881317,167.893478 
	C416.881317,167.893478 417.031616,168.157486 417.125031,168.077591 
z"/>
<path fill="#94DE5F" opacity="1.000000" stroke="none" 
	d="
M439.328552,189.645782 
	C436.754333,191.974762 434.049927,194.135818 431.132904,195.956253 
	C430.398315,196.414719 428.932281,195.945511 427.891357,195.619034 
	C425.577087,194.893188 423.315125,193.998672 421.039032,193.153595 
	C416.403595,191.432556 411.847504,189.440903 407.111450,188.069458 
	C404.387817,187.280746 401.348236,187.658722 398.501434,187.198624 
	C395.685883,186.743591 392.933899,185.895035 389.788971,185.092957 
	C397.138885,180.569580 405.303619,179.004456 414.288361,178.598099 
	C422.685608,178.218323 429.287964,180.579269 435.543213,185.343781 
	C436.941589,186.408920 437.938049,188.001740 439.328552,189.645782 
z"/>
<path fill="#467297" opacity="1.000000" stroke="none" 
	d="
M421.954926,231.047150 
	C420.879547,230.407806 419.642883,229.936569 418.763428,229.092972 
	C417.097778,227.495316 415.633270,225.634064 414.507629,229.449417 
	C413.906433,229.076416 413.305237,228.703400 412.533508,228.164185 
	C412.802795,221.565216 415.728027,219.405670 422.093170,221.231354 
	C421.770630,222.558945 421.444336,223.901947 421.119293,225.239914 
	C422.283051,226.011353 423.462646,226.793304 424.611145,227.919525 
	C423.705017,229.191574 422.829956,230.119354 421.954926,231.047150 
z"/>
<path fill="#37536C" opacity="1.000000" stroke="none" 
	d="
M403.017426,222.093796 
	C404.381897,215.322128 406.210938,214.555984 411.290527,218.531540 
	C410.186249,221.971848 409.717865,225.984390 405.117676,226.784821 
	C404.682465,226.860535 403.736298,223.999786 403.017426,222.093796 
z"/>
<path fill="#447095" opacity="1.000000" stroke="none" 
	d="
M421.756287,231.238708 
	C422.829956,230.119354 423.705017,229.191574 424.741699,228.164276 
	C426.298737,227.633316 427.694153,227.201859 429.637238,226.737213 
	C433.308472,231.424500 437.462738,228.881866 441.709442,228.315308 
	C439.279053,229.491974 436.571289,231.111267 433.658844,231.677124 
	C429.431061,232.498489 425.055511,232.559387 420.364136,232.966309 
	C420.509399,232.468750 421.033508,231.949509 421.756287,231.238708 
z"/>
<path fill="#467297" opacity="1.000000" stroke="none" 
	d="
M405.450958,239.226730 
	C404.901459,244.265976 403.943207,249.175827 402.981110,254.477783 
	C401.370514,249.311890 401.093018,243.927933 405.450958,239.226730 
z"/>
<path fill="#37536C" opacity="1.000000" stroke="none" 
	d="
M442.468323,188.103516 
	C442.948151,188.285324 443.473419,188.745987 444.061951,189.470871 
	C443.588013,189.284180 443.050873,188.833267 442.468323,188.103516 
z"/>
<path fill="#467297" opacity="1.000000" stroke="none" 
	d="
M404.971161,237.496887 
	C405.340546,237.718140 405.588440,238.327377 405.872864,239.269272 
	C405.556122,239.029572 405.202881,238.457230 404.971161,237.496887 
z"/>
<path fill="#467297" opacity="1.000000" stroke="none" 
	d="
M424.491333,221.486633 
	C424.481873,221.456238 424.500824,221.517029 424.491333,221.486633 
z"/>
<path fill="#4F7AA1" opacity="1.000000" stroke="none" 
	d="
M410.429474,248.348907 
	C412.226746,250.461700 413.892761,252.945374 415.779419,255.714142 
	C414.203430,256.335693 412.406860,256.672119 410.195923,257.016998 
	C409.953796,254.256882 410.126007,251.488342 410.429474,248.348907 
z"/>
<path fill="#4F7AA1" opacity="1.000000" stroke="none" 
	d="
M425.123901,256.029663 
	C425.000488,255.998657 425.500000,255.997849 425.749756,255.998260 
	C425.999512,255.998657 425.626587,256.073578 425.626587,256.073578 
	C425.626587,256.073578 425.247345,256.060638 425.123901,256.029663 
z"/>
<path fill="#447095" opacity="1.000000" stroke="none" 
	d="
M452.733887,196.051208 
	C452.173462,195.276566 451.613068,194.501923 450.954163,193.458771 
	C452.214813,194.241867 453.573975,195.293457 454.615967,196.504639 
	C453.777130,196.459885 453.255524,196.255539 452.733887,196.051208 
z"/>
<path fill="#467297" opacity="1.000000" stroke="none" 
	d="
M452.774231,196.438812 
	C453.255524,196.255539 453.777130,196.459885 454.547546,196.772202 
	C454.591431,198.380341 454.386566,199.880508 454.007202,201.717957 
	C453.493317,200.312302 453.153961,198.569366 452.774231,196.438812 
z"/>
<path fill="#467297" opacity="1.000000" stroke="none" 
	d="
M453.952209,206.803741 
	C453.724854,206.175522 453.626953,205.302979 453.675079,204.191391 
	C453.907959,204.821365 453.994812,205.690384 453.952209,206.803741 
z"/>
<path fill="#447095" opacity="1.000000" stroke="none" 
	d="
M445.292786,228.138901 
	C445.786011,227.138382 446.536682,226.180542 447.539734,225.063522 
	C447.044830,225.996750 446.297546,227.089157 445.292786,228.138901 
z"/>
<path fill="#447095" opacity="1.000000" stroke="none" 
	d="
M448.223755,224.766205 
	C448.754852,224.276108 449.597260,223.761871 450.748199,223.211090 
	C450.216156,223.697067 449.375610,224.219574 448.223755,224.766205 
z"/>
<path fill="#5582AB" opacity="1.000000" stroke="none" 
	d="
M417.078308,168.117538 
	C417.031616,168.157486 416.881317,167.893478 416.881317,167.893478 
	C416.881317,167.893478 417.125031,168.077591 417.078308,168.117538 
z"/>
</svg>