<svg version="1.1" id="Layer_1" xmlns="http://www.w3.org/2000/svg" xmlns:xlink="http://www.w3.org/1999/xlink" x="0px" y="0px"
	 width="100%" viewBox="0 0 177 200" enable-background="new 0 0 177 200" xml:space="preserve">
<path fill="#FDFEFD" opacity="1.000000" stroke="none" 
	d="
M51.000000,201.000000 
	C48.958332,201.000000 46.916668,201.000000 44.360916,200.634399 
	C41.624531,198.326645 39.595425,197.929382 38.000000,201.000000 
	C25.674688,201.000000 13.349377,201.000000 1.018049,201.000000 
	C1.012033,134.384720 1.012033,67.769432 1.012033,1.077073 
	C59.910156,1.077073 118.820442,1.077073 177.865356,1.077073 
	C177.865356,67.666489 177.865356,134.333206 177.865356,201.000000 
	C158.578888,201.000000 139.258102,201.000000 119.500984,200.626999 
	C119.006577,199.508743 118.948509,198.763474 118.955597,197.568665 
	C118.646835,192.016327 118.498970,186.881775 117.789001,181.826187 
	C117.500313,179.770493 115.989723,177.886398 115.034508,175.586334 
	C114.063232,172.180130 113.092537,169.111801 112.132828,165.686859 
	C112.433266,164.534439 112.722702,163.738632 113.080177,162.535004 
	C112.102470,157.745956 111.056717,153.364761 110.034256,148.618179 
	C108.778412,146.797394 107.499290,145.341995 106.099670,143.551208 
	C104.373848,140.311478 102.658234,137.460602 101.212234,134.478958 
	C100.543114,133.099258 100.399742,131.464569 100.009789,129.548782 
	C99.945366,128.099380 99.889175,127.046677 99.910988,125.660690 
	C100.048248,124.875267 100.107498,124.423119 100.431656,123.862183 
	C101.133286,122.532631 101.570007,121.311867 102.323326,119.974686 
	C103.087418,119.816895 103.534912,119.775520 104.186684,119.866684 
	C104.390961,119.999214 104.869804,120.088051 105.040222,120.378311 
	C108.131454,123.436424 111.052277,126.204269 114.066353,129.322250 
	C114.845978,131.312347 115.532867,132.952087 116.218628,134.592316 
	C118.380371,139.762863 120.488029,144.983337 127.027176,146.451813 
	C127.874756,147.173309 128.643784,147.612549 129.684570,148.360657 
	C131.279190,148.971405 132.602036,149.273285 134.249847,149.766388 
	C136.892578,150.078400 139.215454,150.363617 141.527222,150.291672 
	C151.918152,149.968246 161.541962,142.893967 164.053879,132.917587 
	C165.588501,126.822601 165.893692,120.418068 166.880035,113.752289 
	C166.647064,108.334663 166.318146,103.314468 165.888962,98.302864 
	C165.821503,97.515106 165.299652,96.766258 165.168457,95.738434 
	C165.610443,94.553131 166.400787,93.192314 166.052917,92.770782 
	C161.701569,87.497841 157.388824,82.165108 152.653397,77.244987 
	C148.028778,72.440002 145.340576,73.043121 141.620102,78.942886 
	C139.497589,79.635002 137.745804,80.313698 135.997009,80.996170 
	C136.000000,80.999947 136.007324,81.005569 135.975388,80.704788 
	C135.279114,80.587189 134.614761,80.770386 133.669006,80.845543 
	C132.581787,81.139442 131.775970,81.541382 130.754761,82.066437 
	C130.267700,82.395332 130.072266,82.657845 129.594910,82.990685 
	C126.957390,83.352493 126.237694,84.243568 128.016800,86.290405 
	C127.551201,86.983871 127.242378,87.445862 126.702576,87.934464 
	C126.471596,87.961090 126.008286,88.009834 125.660088,88.063263 
	C125.219452,90.041138 125.127014,91.965584 124.998093,93.927765 
	C124.961609,93.965485 124.914848,94.059448 124.708748,94.137009 
	C124.253548,94.389175 124.076408,94.619202 123.745926,95.076004 
	C123.011818,96.162865 122.503006,97.078377 121.742798,98.094498 
	C121.019371,98.459747 120.547356,98.724380 119.774887,99.002258 
	C119.274979,99.035927 119.075531,99.056343 118.665207,98.993050 
	C118.176804,98.748329 117.997597,98.512581 117.914024,97.888542 
	C117.126862,96.427505 116.342369,95.280014 115.480225,93.839211 
	C115.331909,93.356354 115.261261,93.166817 115.311111,92.777206 
	C115.431610,92.577133 115.268417,92.139450 115.432632,91.855804 
	C115.655350,90.264587 115.713844,88.957016 115.831848,87.288811 
	C115.634277,86.289909 115.377213,85.651634 114.959862,84.755188 
	C114.530479,83.953094 114.261375,83.409164 113.909668,82.681717 
	C113.668747,82.270256 113.459923,82.106834 113.129410,81.744705 
	C113.113907,81.308441 113.169609,81.135406 113.559311,80.981354 
	C114.550514,80.505188 115.207726,80.010048 115.864929,79.514908 
	C115.403801,78.969917 114.942680,78.424927 114.311462,77.871078 
	C114.141380,77.862213 114.151466,77.521729 114.107445,77.198441 
	C112.729218,75.319328 112.185326,71.890709 108.625702,74.738327 
	C104.301231,70.544655 99.395439,71.660973 94.279404,72.139725 
	C93.889641,71.216614 93.589241,70.405701 93.739174,69.688988 
	C94.351410,66.762291 95.101295,63.864384 95.888077,60.628616 
	C96.714592,59.224373 97.453499,58.147388 98.503418,56.989502 
	C99.755798,55.269581 100.697151,53.630569 101.858231,51.740364 
	C102.344673,50.897583 102.611389,50.306000 103.200073,49.536015 
	C103.965279,47.480640 105.111839,45.442093 104.724487,43.755928 
	C103.373657,37.875771 101.735268,32.028988 99.672028,26.364061 
	C99.008141,24.541277 96.693085,23.319868 94.955826,21.528801 
	C91.958168,18.402021 89.034981,15.663955 86.342361,12.715329 
	C82.361168,8.355594 77.448601,7.853592 71.992386,8.529512 
	C63.999210,6.662228 60.232895,8.187779 55.699574,14.901317 
	C48.175636,22.205166 42.007885,29.816288 42.555897,41.031624 
	C41.827007,42.789780 41.410454,44.376930 40.638290,46.068993 
	C37.486023,53.643658 44.531792,65.292328 53.277527,67.333023 
	C56.792915,67.745132 56.631962,69.757195 55.817776,72.227783 
	C55.253860,72.888222 54.888409,73.335724 54.184616,73.815140 
	C50.880428,76.228897 47.914589,78.610733 44.624756,80.849068 
	C38.162991,79.825554 33.684818,83.406883 28.676119,86.462540 
	C26.700817,88.036316 25.005985,89.515862 23.380987,91.068497 
	C18.908472,95.341820 18.816961,101.336960 23.052956,106.446899 
	C22.563572,107.683418 22.309431,108.716644 21.683941,109.419296 
	C15.904725,115.911285 11.821447,123.306709 9.800718,131.765717 
	C9.268924,133.991867 9.234639,136.336868 8.649218,138.706100 
	C4.395577,150.906845 5.197013,162.706955 10.636502,174.231644 
	C14.744297,182.934860 22.316647,188.249924 29.626417,193.821777 
	C31.105354,194.949097 32.671654,196.444397 34.363552,196.708862 
	C37.845390,197.253082 41.439278,197.080444 45.068764,197.547913 
	C46.918118,198.282745 48.685760,198.672501 50.518089,199.402603 
	C50.721851,200.161957 50.860928,200.580978 51.000000,201.000000 
M119.604027,76.799713 
	C119.212189,76.795654 118.820168,76.787941 118.429573,76.807976 
	C118.419472,76.808495 118.414169,77.254372 118.424782,77.255180 
	C118.814781,77.285011 119.206932,77.286697 119.604027,76.799713 
z"/>
<path fill="#4D92AA" opacity="1.000000" stroke="none" 
	d="
M112.121841,166.043472 
	C113.092537,169.111801 114.063232,172.180130 115.003761,176.031464 
	C115.365868,181.823502 115.540192,186.863800 116.251930,191.827026 
	C116.559639,193.972763 117.977089,195.959335 118.890434,198.018219 
	C118.948509,198.763474 119.006577,199.508743 119.032326,200.626999 
	C110.645767,201.000000 102.291534,201.000000 93.541916,200.613968 
	C92.417244,197.789795 91.687958,195.351654 90.919144,192.596741 
	C90.959663,191.861832 91.039703,191.443695 91.477036,191.044495 
	C97.493210,188.831512 102.935638,186.344254 105.348450,179.815262 
	C107.828720,175.175049 109.975281,170.609268 112.121841,166.043472 
z"/>
<path fill="#4E90A8" opacity="1.000000" stroke="none" 
	d="
M51.468658,201.000000 
	C50.860928,200.580978 50.721851,200.161957 50.650562,199.216446 
	C50.718346,198.689957 50.898811,198.271561 50.888485,198.126984 
	C50.878159,197.982422 50.983242,197.712280 51.379723,197.814529 
	C53.513771,197.575516 55.251339,197.234253 57.424274,196.939911 
	C62.761593,197.468369 67.213821,196.792831 70.140244,192.163025 
	C70.132744,192.115204 70.039490,192.085083 70.300598,192.234436 
	C70.738235,192.288651 70.914764,192.193497 71.346176,191.884232 
	C72.158463,188.498779 72.715858,185.327454 73.598602,182.118362 
	C75.911659,178.986740 77.886070,181.829315 80.055565,182.369400 
	C83.181831,185.898392 86.118790,189.151917 88.879028,192.684784 
	C87.468208,195.642776 86.234108,198.321381 85.000000,201.000000 
	C73.979103,201.000000 62.958210,201.000000 51.468658,201.000000 
z"/>
<path fill="#EFF4F3" opacity="1.000000" stroke="none" 
	d="
M85.444168,201.000000 
	C86.234108,198.321381 87.468208,195.642776 89.139389,192.653046 
	C90.037193,192.532455 90.497932,192.722977 90.958679,192.913513 
	C91.687958,195.351654 92.417244,197.789795 93.073265,200.613968 
	C90.629440,201.000000 88.258888,201.000000 85.444168,201.000000 
z"/>
<path fill="#EFF2EE" opacity="1.000000" stroke="none" 
	d="
M38.428463,201.000000 
	C39.595425,197.929382 41.624531,198.326645 43.923416,200.634399 
	C42.285641,201.000000 40.571285,201.000000 38.428463,201.000000 
z"/>
<path fill="#094481" opacity="1.000000" stroke="none" 
	d="
M126.948631,146.169556 
	C120.488029,144.983337 118.380371,139.762863 116.218628,134.592316 
	C115.532867,132.952087 114.845978,131.312347 114.399612,129.081833 
	C115.449440,123.359245 116.259254,118.227203 117.360596,113.032509 
	C118.383911,112.663292 119.115677,112.356728 119.991028,112.279907 
	C120.420967,112.722244 120.707336,112.934845 120.831879,113.512329 
	C119.101433,118.968437 119.462265,123.657433 123.288765,127.771858 
	C128.560898,133.440704 140.862900,134.192078 143.599747,128.327911 
	C147.503189,119.964119 155.007263,116.954819 162.321503,113.305679 
	C161.913803,111.892647 161.501266,110.481018 161.427826,108.858749 
	C163.199844,110.387695 164.632767,112.127274 165.692490,113.971176 
	C164.550949,115.442955 163.356354,116.735420 163.099991,118.192932 
	C162.502762,121.588127 162.674759,125.129776 161.965424,128.491898 
	C160.256470,136.592041 156.831085,143.723770 148.043839,146.062225 
	C143.508591,147.269135 138.686188,147.397018 133.779053,147.746063 
	C131.359268,147.042969 129.153946,146.606262 126.948631,146.169556 
z"/>
<path fill="#0A4686" opacity="1.000000" stroke="none" 
	d="
M44.987057,197.202820 
	C41.439278,197.080444 37.845390,197.253082 34.363552,196.708862 
	C32.671654,196.444397 31.105354,194.949097 29.626417,193.821777 
	C22.316647,188.249924 14.744297,182.934860 10.636502,174.231644 
	C5.197013,162.706955 4.395577,150.906845 8.953712,138.707733 
	C10.731256,138.114395 11.881637,137.598251 12.957574,137.428299 
	C12.041003,140.022812 10.195242,142.428802 10.519662,144.493866 
	C12.621933,157.875610 18.160807,169.602936 30.371582,176.503754 
	C36.425938,179.925293 43.473629,181.589172 50.066711,184.389282 
	C50.103024,185.182770 50.144547,185.635239 50.129837,186.504227 
	C50.422268,189.619217 50.770927,192.317673 51.105179,195.353729 
	C51.054924,196.364990 51.019081,197.038635 50.983242,197.712280 
	C50.983242,197.712280 50.878159,197.982422 50.544472,197.946930 
	C48.469543,197.675232 46.728302,197.439026 44.987057,197.202820 
z"/>
<path fill="#F0F8F0" opacity="1.000000" stroke="none" 
	d="
M141.990845,78.929459 
	C145.340576,73.043121 148.028778,72.440002 152.653397,77.244987 
	C157.388824,82.165108 161.701569,87.497841 166.052917,92.770782 
	C166.400787,93.192314 165.610443,94.553131 164.759445,95.736267 
	C159.963745,95.062164 158.253525,97.740486 156.627106,101.144745 
	C154.443726,102.911392 149.283646,99.120872 149.975998,105.309723 
	C149.719986,105.794235 149.492203,105.994652 148.812805,106.133102 
	C146.221802,106.803925 144.018219,107.463722 141.441772,108.132187 
	C140.082336,108.202347 139.095764,108.263840 137.960983,107.986023 
	C132.357162,104.623466 126.812660,101.690247 124.980209,94.753922 
	C124.968788,94.521568 124.914848,94.059448 124.914848,94.059448 
	C124.914848,94.059448 124.961609,93.965485 125.238724,93.853622 
	C125.972778,93.275948 126.429726,92.810143 127.174034,92.115463 
	C128.930008,90.560303 130.398636,89.234016 132.020844,87.668434 
	C132.480225,86.951691 132.786011,86.474243 133.398071,85.953423 
	C134.132828,85.296898 134.561325,84.683746 135.373184,84.048767 
	C137.620697,83.579048 139.484863,83.131157 141.350098,82.683022 
	C141.570953,81.389259 141.780899,80.159355 141.990845,78.929459 
z"/>
<path fill="#0F82BA" opacity="1.000000" stroke="none" 
	d="
M42.868233,40.860619 
	C42.007885,29.816288 48.175636,22.205166 56.130589,15.040585 
	C62.204281,14.539907 67.225281,15.197586 71.493614,19.029829 
	C77.074303,24.040354 80.706833,30.099108 82.121635,37.867577 
	C82.049454,38.819881 82.018204,39.362865 81.693932,40.057076 
	C80.198860,41.150249 78.996811,42.092201 77.598267,43.038509 
	C77.401772,43.042870 77.009018,43.027023 76.874710,42.709068 
	C74.819016,40.409389 72.816444,38.499058 70.995758,36.428764 
	C68.438911,33.521381 65.856178,32.978081 62.667427,36.040497 
	C60.895649,37.106876 59.448826,38.060928 57.698936,39.139122 
	C55.574356,40.834770 53.752846,42.406281 51.695030,44.006454 
	C51.458721,44.035114 50.986835,44.098145 50.662613,43.916504 
	C47.848339,42.776779 45.358284,41.818699 42.868233,40.860619 
M61.001080,25.476011 
	C60.994350,22.746096 60.567856,20.000477 56.966175,21.714407 
	C55.334503,22.490873 54.248253,24.663258 53.302662,26.412209 
	C53.122536,26.745367 54.977718,28.911100 55.524849,28.772690 
	C57.424477,28.292135 59.161640,27.169373 61.001080,25.476011 
z"/>
<path fill="#074684" opacity="1.000000" stroke="none" 
	d="
M94.575806,72.295227 
	C99.395439,71.660973 104.301231,70.544655 108.942413,74.873108 
	C111.135406,75.844200 112.643440,76.682961 114.151466,77.521729 
	C114.151466,77.521729 114.141380,77.862213 114.173538,78.152527 
	C113.569504,79.239716 112.933311,80.036606 112.005783,81.025154 
	C112.899094,84.857689 114.083755,88.498573 115.268417,92.139450 
	C115.268417,92.139450 115.431610,92.577133 114.904724,92.787300 
	C112.477837,93.261253 110.577827,93.525040 108.089355,93.870522 
	C109.739471,89.869720 112.965904,86.328827 108.541725,82.202400 
	C108.127678,84.641426 107.772453,86.733932 107.345665,89.247993 
	C105.525085,88.297020 104.269646,87.641251 102.994980,86.749153 
	C102.857170,86.242538 102.738579,85.972244 102.619995,85.701942 
	C102.498978,85.788879 102.267700,85.944695 102.272797,85.952850 
	C102.497803,86.313011 102.743652,86.660164 102.964653,87.340836 
	C102.921158,89.189735 102.900024,90.706680 102.548019,92.121887 
	C100.482643,90.126755 98.748138,88.233360 96.852905,86.164513 
	C95.496284,87.142838 94.138115,88.040756 92.869850,89.051491 
	C88.216751,92.759682 83.569336,94.284645 77.920273,90.635735 
	C74.668983,88.535622 70.754707,87.461906 66.970154,85.658279 
	C65.838173,84.600601 64.874901,83.810822 64.342728,83.000809 
	C66.218910,83.265465 67.683281,83.863586 69.105400,83.775963 
	C73.214211,83.522804 77.980339,85.768814 81.001556,80.978966 
	C80.994423,81.014061 80.923767,81.002296 81.132225,80.939102 
	C81.612938,80.745262 81.819199,80.546227 82.118729,80.065224 
	C82.499420,79.579491 82.720848,79.307350 83.285217,78.987701 
	C87.277367,76.725212 90.926590,74.510223 94.575806,72.295227 
z"/>
<path fill="#0B4481" opacity="1.000000" stroke="none" 
	d="
M23.115952,106.090271 
	C18.816961,101.336960 18.908472,95.341820 23.380987,91.068497 
	C25.005985,89.515862 26.700817,88.036316 28.763063,86.807037 
	C36.420147,88.563011 42.493462,92.261353 48.028389,97.420860 
	C50.171787,100.688599 52.457111,103.508804 54.269360,106.605843 
	C56.107010,109.746284 58.339359,111.683228 62.081867,111.507767 
	C59.899555,112.919106 57.789413,113.962776 55.277214,115.205299 
	C56.037769,121.705986 49.594833,120.678772 45.978127,122.516541 
	C46.060719,112.702507 42.116783,106.562851 34.962261,104.479370 
	C36.256527,102.370491 39.852242,101.293396 36.774101,98.266350 
	C34.345554,95.878105 28.716339,95.707802 26.018578,98.294128 
	C23.718378,100.499306 25.221848,102.389061 26.979534,104.270355 
	C25.572309,105.069504 24.344131,105.579887 23.115952,106.090271 
z"/>
<path fill="#48B8D0" opacity="1.000000" stroke="none" 
	d="
M23.052958,106.446899 
	C24.344131,105.579887 25.572309,105.069504 27.341526,104.281311 
	C29.638796,104.670937 31.395025,105.338364 33.133484,106.337135 
	C33.823318,107.411476 34.530926,108.154465 34.907791,109.040665 
	C28.748503,116.034019 23.231409,123.068169 20.899494,132.356567 
	C19.488724,133.754349 18.232403,134.870789 16.725060,136.016266 
	C16.307236,136.068893 16.140432,136.092499 15.655130,136.094711 
	C14.568427,136.409576 13.800221,136.745834 13.032015,137.082092 
	C11.881637,137.598251 10.731256,138.114395 9.276382,138.628906 
	C9.234639,136.336868 9.268924,133.991867 9.800718,131.765717 
	C11.821447,123.306709 15.904725,115.911285 21.683941,109.419296 
	C22.309431,108.716644 22.563572,107.683418 23.052958,106.446899 
z"/>
<path fill="#0E80B9" opacity="1.000000" stroke="none" 
	d="
M47.962769,97.094788 
	C42.493462,92.261353 36.420147,88.563011 29.075394,86.746155 
	C33.684818,83.406883 38.162991,79.825554 44.943089,80.736771 
	C47.169056,80.767975 48.752693,80.767975 50.621880,80.767975 
	C50.621880,79.709282 50.621880,78.515404 50.621880,77.193245 
	C52.354778,77.070938 53.821194,76.967445 55.452587,76.907822 
	C55.617565,76.951683 55.942799,77.055565 56.019730,77.293205 
	C56.276081,77.838013 56.540047,78.027283 56.923347,78.347031 
	C57.058746,78.912178 57.156952,79.229698 57.184624,79.906853 
	C57.082287,80.506874 57.048092,80.747993 57.006977,80.994598 
	C57.000057,81.000084 56.989113,81.014015 56.681301,81.034996 
	C54.976006,80.968803 53.578518,80.881638 52.272930,80.800194 
	C54.642830,84.375908 56.831894,87.678772 58.869972,91.292709 
	C56.189728,95.502983 52.277622,96.693352 47.962769,97.094788 
z"/>
<path fill="#A0DBF0" opacity="1.000000" stroke="none" 
	d="
M82.162567,37.458244 
	C80.706833,30.099108 77.074303,24.040354 71.493614,19.029829 
	C67.225281,15.197586 62.204281,14.539907 56.392017,14.813072 
	C60.232895,8.187779 63.999210,6.662228 71.778793,8.725621 
	C79.142685,16.229633 84.828384,24.502081 88.730026,33.897900 
	C87.910675,34.618599 87.405144,35.256519 86.659729,35.975754 
	C86.241905,36.335480 86.063972,36.613884 85.558517,37.015686 
	C84.208176,37.245468 83.185371,37.351856 82.162567,37.458244 
z"/>
<path fill="#47B8D1" opacity="1.000000" stroke="none" 
	d="
M89.043854,33.815121 
	C84.828384,24.502081 79.142685,16.229633 71.861923,9.041197 
	C77.448601,7.853592 82.361168,8.355594 86.342361,12.715329 
	C89.034981,15.663955 91.958168,18.402021 94.630127,21.722094 
	C95.228058,25.959787 95.974083,29.709650 96.790855,33.815121 
	C93.947540,33.815121 91.495697,33.815121 89.043854,33.815121 
z"/>
<path fill="#25527F" opacity="1.000000" stroke="none" 
	d="
M88.730026,33.897900 
	C91.495697,33.815121 93.947540,33.815121 96.790855,33.815121 
	C95.974083,29.709650 95.228058,25.959787 94.807724,22.016632 
	C96.693085,23.319868 99.008141,24.541277 99.672028,26.364061 
	C101.735268,32.028988 103.373657,37.875771 104.724487,43.755928 
	C105.111839,45.442093 103.965279,47.480640 102.993942,49.354065 
	C101.751701,49.836956 101.037575,50.323395 100.323448,50.809837 
	C100.761803,51.203743 101.200150,51.597652 101.638504,51.991558 
	C100.697151,53.630569 99.755798,55.269581 98.163132,56.938538 
	C97.005714,56.310146 96.499603,55.651810 95.996094,54.996319 
	C95.998695,54.999168 95.992119,54.991081 96.270142,55.089401 
	C97.258629,54.280457 97.969109,53.373192 98.679581,52.465927 
	C97.507469,51.642876 96.335365,50.819824 95.117233,49.684326 
	C95.019348,48.955185 94.967491,48.538490 95.079300,47.751686 
	C98.692955,35.641060 98.105942,34.828289 87.191452,36.246635 
	C87.096077,36.127670 86.899620,35.894444 86.899620,35.894440 
	C87.405144,35.256519 87.910675,34.618599 88.730026,33.897900 
z"/>
<path fill="#3A444C" opacity="1.000000" stroke="none" 
	d="
M50.986835,44.098145 
	C50.986835,44.098145 51.458721,44.035114 51.734589,44.349617 
	C52.669842,45.780910 53.329227,46.897701 54.026016,48.315800 
	C54.408096,49.075153 54.752777,49.533195 55.065819,49.971344 
	C55.034180,49.951450 55.085278,49.896721 55.062721,50.278740 
	C49.855789,55.034519 52.158226,60.434448 52.972252,65.637344 
	C53.047707,66.119621 52.963593,66.626862 52.953575,67.122505 
	C44.531792,65.292328 37.486023,53.643658 40.812737,46.371262 
	C47.594547,49.927479 48.212330,49.769226 50.986835,44.098145 
z"/>
<path fill="#5295B0" opacity="1.000000" stroke="none" 
	d="
M117.069061,113.095161 
	C116.259254,118.227203 115.449440,123.359245 114.306366,128.731705 
	C111.052277,126.204269 108.131454,123.436424 105.086548,120.127762 
	C104.957054,119.417107 104.951653,119.247261 104.964287,118.655548 
	C106.016212,113.451630 107.050102,108.669594 108.422775,103.953751 
	C111.530724,107.045021 114.299889,110.070091 117.069061,113.095161 
z"/>
<path fill="#385B9A" opacity="1.000000" stroke="none" 
	d="
M133.993530,148.012451 
	C138.686188,147.397018 143.508591,147.269135 148.043839,146.062225 
	C156.831085,143.723770 160.256470,136.592041 161.965424,128.491898 
	C162.674759,125.129776 162.502762,121.588127 163.099991,118.192932 
	C163.356354,116.735420 164.550949,115.442955 165.860870,114.050140 
	C166.402451,114.024780 166.751038,114.152557 166.751038,114.152557 
	C165.893692,120.418068 165.588501,126.822601 164.053879,132.917587 
	C161.541962,142.893967 151.918152,149.968246 141.527222,150.291672 
	C139.215454,150.363617 136.892578,150.078400 134.261795,149.368103 
	C133.971191,148.514084 133.993591,148.249588 134.009720,147.991058 
	C134.003433,147.997025 133.993530,148.012451 133.993530,148.012451 
z"/>
<path fill="#3A738A" opacity="1.000000" stroke="none" 
	d="
M100.166756,123.970970 
	C100.107498,124.423119 100.048248,124.875267 99.583115,125.703125 
	C97.802986,126.700378 96.428741,127.321915 95.021713,127.563622 
	C93.907028,125.802208 92.201637,123.092377 91.846504,123.259079 
	C89.850731,124.195908 87.030182,125.543839 86.607468,127.269829 
	C85.158546,133.185989 81.677528,135.886459 75.867599,136.241455 
	C72.584373,136.442047 69.308350,136.760452 65.679184,136.865219 
	C63.228706,135.843979 61.128132,134.983307 59.448959,134.098663 
	C65.608673,135.306625 70.923500,134.133530 76.618263,132.753357 
	C80.700584,131.763947 81.822968,129.949265 83.140770,126.980606 
	C84.352608,124.250664 85.800529,121.625519 87.479904,118.922600 
	C90.501587,118.545868 93.187805,118.200737 95.970215,118.240402 
	C97.574760,120.298523 95.917053,124.400322 100.166756,123.970970 
z"/>
<path fill="#4CB7CF" opacity="1.000000" stroke="none" 
	d="
M117.360596,113.032509 
	C114.299889,110.070091 111.530724,107.045021 108.408752,103.738907 
	C108.055946,103.457855 108.036629,103.025436 108.041107,102.763016 
	C108.039795,102.325722 108.033997,102.150841 108.056290,101.645462 
	C108.409904,100.264893 108.735428,99.214844 109.356911,97.999428 
	C111.070526,97.270950 112.488182,96.707840 114.160828,96.342422 
	C115.582771,97.094101 116.749733,97.648094 117.916695,98.202087 
	C117.997597,98.512581 118.176804,98.748329 118.744995,99.229950 
	C119.141022,99.679779 119.246399,99.809006 119.347687,100.289352 
	C119.224785,101.090508 119.105972,101.540535 118.658249,102.177017 
	C118.921204,105.215645 119.513077,108.067802 120.029709,111.200043 
	C119.918793,111.670120 119.883118,111.860138 119.847443,112.050156 
	C119.115677,112.356728 118.383911,112.663292 117.360596,113.032509 
z"/>
<path fill="#93B4DF" opacity="1.000000" stroke="none" 
	d="
M100.431656,123.862183 
	C95.917053,124.400322 97.574760,120.298523 96.155853,117.937759 
	C97.198601,114.876411 98.386337,112.566277 99.053284,110.114479 
	C100.216194,105.839462 101.058304,101.477180 102.270325,97.112503 
	C102.505775,97.073532 102.955360,96.913223 103.033432,97.328400 
	C102.743248,105.192757 102.374992,112.641930 102.006729,120.091103 
	C101.570007,121.311867 101.133286,122.532631 100.431656,123.862183 
z"/>
<path fill="#BC8779" opacity="1.000000" stroke="none" 
	d="
M94.279404,72.139725 
	C90.926590,74.510223 87.277367,76.725212 83.258659,78.623383 
	C82.326378,77.074562 81.763588,75.842567 81.168938,74.540825 
	C87.634674,73.088470 87.720757,67.820770 89.204567,63.182816 
	C90.442543,62.463436 91.337646,61.801472 92.463905,61.038345 
	C92.864494,60.655972 93.033913,60.374760 93.452621,60.215706 
	C94.401428,60.543869 95.100952,60.749870 95.800476,60.955875 
	C95.101295,63.864384 94.351410,66.762291 93.739174,69.688988 
	C93.589241,70.405701 93.889641,71.216614 94.279404,72.139725 
z"/>
<path fill="#B9DBED" opacity="1.000000" stroke="none" 
	d="
M166.880035,113.752289 
	C166.751038,114.152557 166.402451,114.024780 166.234070,113.945816 
	C164.632767,112.127274 163.199844,110.387695 161.180573,108.836166 
	C160.594208,109.024216 160.100464,109.026344 159.818024,108.811935 
	C158.674255,106.712479 157.812927,104.827431 156.965027,102.617577 
	C156.965515,101.859261 156.952576,101.425751 156.939636,100.992233 
	C158.253525,97.740486 159.963745,95.062164 164.578888,95.997253 
	C165.299652,96.766258 165.821503,97.515106 165.888962,98.302864 
	C166.318146,103.314468 166.647064,108.334663 166.880035,113.752289 
z"/>
<path fill="#243038" opacity="1.000000" stroke="none" 
	d="
M53.277531,67.333023 
	C52.963593,66.626862 53.047707,66.119621 52.972252,65.637344 
	C52.158226,60.434448 49.855789,55.034519 55.296661,50.441879 
	C55.965660,50.854328 56.378159,51.485661 56.836258,52.525993 
	C57.613255,58.583080 58.344650,64.231163 59.049049,70.236397 
	C58.377678,71.757347 57.733303,72.921135 57.046837,73.779938 
	C56.675247,72.988243 56.345745,72.501549 56.016239,72.014854 
	C56.631962,69.757195 56.792915,67.745132 53.277531,67.333023 
z"/>
<path fill="#6686BB" opacity="1.000000" stroke="none" 
	d="
M102.323326,119.974686 
	C102.374992,112.641930 102.743248,105.192757 103.047607,97.359665 
	C102.983719,96.975739 102.918930,96.994980 103.085129,96.948883 
	C103.346809,96.843216 103.531860,96.753166 103.523598,96.728897 
	C103.457527,96.534660 103.354889,96.352882 103.220566,95.873917 
	C103.129341,95.388885 103.081001,95.197235 103.014404,95.011002 
	C102.996140,95.016434 103.024399,95.044685 103.356766,94.940964 
	C104.360764,93.559433 105.032394,92.281616 105.618858,91.165840 
	C106.778145,93.523064 107.919548,95.843925 109.060959,98.164795 
	C108.735428,99.214844 108.409904,100.264893 107.881508,101.739822 
	C107.797966,102.451614 107.917297,102.738525 108.036629,103.025436 
	C108.036629,103.025436 108.055946,103.457855 108.069969,103.672707 
	C107.050102,108.669594 106.016212,113.451630 104.777672,118.725769 
	C104.308830,119.312927 104.111961,119.485023 103.982407,119.734146 
	C103.534912,119.775520 103.087418,119.816895 102.323326,119.974686 
z"/>
<path fill="#18467A" opacity="1.000000" stroke="none" 
	d="
M109.356918,97.999428 
	C107.919548,95.843925 106.778145,93.523064 105.618858,91.165840 
	C105.032394,92.281616 104.360764,93.559433 103.298065,94.589058 
	C102.897636,93.635117 102.888260,92.929367 102.878891,92.223618 
	C102.900024,90.706680 102.921158,89.189735 102.971725,87.335831 
	C103.001152,86.998856 103.014206,86.985474 103.014206,86.985474 
	C104.269646,87.641251 105.525085,88.297020 107.345665,89.247993 
	C107.772453,86.733932 108.127678,84.641426 108.541725,82.202400 
	C112.965904,86.328827 109.739471,89.869720 108.089355,93.870522 
	C110.577827,93.525040 112.477837,93.261253 114.784225,92.987381 
	C115.261261,93.166817 115.331909,93.356354 115.265671,94.084801 
	C114.721138,95.130714 114.313492,95.637726 113.905838,96.144730 
	C112.488182,96.707840 111.070526,97.270950 109.356918,97.999428 
z"/>
<path fill="#F2F5F5" opacity="1.000000" stroke="none" 
	d="
M118.987167,101.990555 
	C119.105972,101.540535 119.224785,101.090508 119.512436,100.170456 
	C119.864212,99.491875 119.995560,99.254730 120.075333,98.989014 
	C120.547356,98.724380 121.019371,98.459747 121.779221,98.450455 
	C124.419075,101.745544 126.771103,104.785309 129.113037,107.847191 
	C129.102966,107.869316 129.094788,107.916924 129.182526,108.199478 
	C129.852127,108.986702 130.434006,109.491371 131.036224,110.248886 
	C131.046310,110.670517 131.036057,110.839310 130.800690,111.115837 
	C130.293427,111.428093 130.110794,111.699562 130.013840,112.018997 
	C130.000000,112.000000 130.029785,112.036812 129.636932,112.011810 
	C127.436211,111.699753 125.628334,111.412682 123.615814,111.096588 
	C123.411171,111.067574 123.011772,110.960938 122.971451,110.600403 
	C121.616478,107.490105 120.301819,104.740326 118.987167,101.990555 
z"/>
<path fill="#4894AD" opacity="1.000000" stroke="none" 
	d="
M95.054497,127.943451 
	C96.428741,127.321915 97.802986,126.700378 99.505096,126.036407 
	C99.889175,127.046677 99.945366,128.099380 99.740791,129.757294 
	C101.000504,135.945145 102.520988,141.527802 103.957657,147.319458 
	C103.704659,147.791000 103.473427,147.975983 102.879745,147.889008 
	C100.585503,144.156876 98.223038,140.767639 96.718857,137.032715 
	C95.591530,134.233536 95.568947,130.989456 95.054497,127.943451 
z"/>
<path fill="#DFF2EE" opacity="1.000000" stroke="none" 
	d="
M129.123123,107.825066 
	C126.771103,104.785309 124.419075,101.745544 122.030624,98.349838 
	C122.503006,97.078377 123.011818,96.162865 124.000580,95.103439 
	C124.650902,94.968445 124.821266,94.977356 124.991631,94.986275 
	C126.812660,101.690247 132.357162,104.623466 137.876495,108.257874 
	C134.747818,107.518608 131.555435,106.168182 128.124039,104.716652 
	C128.528732,105.975769 128.825928,106.900414 129.123123,107.825066 
z"/>
<path fill="#78848D" opacity="1.000000" stroke="none" 
	d="
M50.662613,43.916504 
	C48.212330,49.769226 47.594547,49.927479 41.168346,46.266350 
	C41.410454,44.376930 41.827007,42.789780 42.555897,41.031624 
	C45.358284,41.818699 47.848339,42.776779 50.662613,43.916504 
z"/>
<path fill="#709BC2" opacity="1.000000" stroke="none" 
	d="
M118.955597,197.568665 
	C117.977089,195.959335 116.559639,193.972763 116.251930,191.827026 
	C115.540192,186.863800 115.365868,181.823502 115.004349,176.369354 
	C115.989723,177.886398 117.500313,179.770493 117.789001,181.826187 
	C118.498970,186.881775 118.646835,192.016327 118.955597,197.568665 
z"/>
<path fill="#10293D" opacity="1.000000" stroke="none" 
	d="
M112.132835,165.686859 
	C109.975281,170.609268 107.828720,175.175049 105.508209,179.543671 
	C107.229095,173.911896 109.123940,168.477295 111.351120,163.027206 
	C112.126358,162.988739 112.569244,162.965775 113.012138,162.942825 
	C112.722702,163.738632 112.433266,164.534439 112.132835,165.686859 
z"/>
<path fill="#186CA1" opacity="1.000000" stroke="none" 
	d="
M103.180153,148.083405 
	C103.473427,147.975983 103.704659,147.791000 104.214233,147.101746 
	C105.109802,145.745544 105.664986,144.816055 106.220169,143.886581 
	C107.499290,145.341995 108.778412,146.797394 109.871902,148.862000 
	C109.117004,149.988602 108.547729,150.505981 107.728378,151.125473 
	C107.011963,151.500702 106.545624,151.773834 105.853996,151.765533 
	C104.015434,151.683121 102.402145,151.882111 100.849136,151.739655 
	C101.666321,150.293289 102.423233,149.188339 103.180153,148.083405 
z"/>
<path fill="#3B5C9A" opacity="1.000000" stroke="none" 
	d="
M107.978455,151.023361 
	C108.547729,150.505981 109.117004,149.988602 109.848625,149.227386 
	C111.056717,153.364761 112.102470,157.745956 113.080177,162.535004 
	C112.569244,162.965775 112.126358,162.988739 111.211861,162.672333 
	C109.819656,158.563110 108.899055,154.793228 107.978455,151.023361 
z"/>
<path fill="#718DA3" opacity="1.000000" stroke="none" 
	d="
M106.099670,143.551208 
	C105.664986,144.816055 105.109802,145.745544 104.298050,146.892731 
	C102.520988,141.527802 101.000504,135.945145 99.749016,130.153992 
	C100.399742,131.464569 100.543114,133.099258 101.212234,134.478958 
	C102.658234,137.460602 104.373848,140.311478 106.099670,143.551208 
z"/>
<path fill="#E5ECE9" opacity="1.000000" stroke="none" 
	d="
M141.620102,78.942886 
	C141.780899,80.159355 141.570953,81.389259 141.350098,82.683022 
	C139.484863,83.131157 137.620697,83.579048 135.111298,83.826523 
	C134.294189,82.735268 134.122299,81.844421 133.950424,80.953575 
	C134.614761,80.770386 135.279114,80.587189 135.838089,80.759567 
	C135.819824,81.074226 135.906937,81.033310 135.994034,80.992386 
	C137.745804,80.313698 139.497589,79.635002 141.620102,78.942886 
z"/>
<path fill="#1B7EB1" opacity="1.000000" stroke="none" 
	d="
M55.287605,76.863953 
	C53.821194,76.967445 52.354778,77.070938 50.621880,77.193245 
	C50.621880,78.515404 50.621880,79.709282 50.621880,80.767975 
	C48.752693,80.767975 47.169056,80.767975 45.267082,80.880264 
	C47.914589,78.610733 50.880428,76.228897 54.341808,74.180008 
	C54.987434,75.296623 55.137520,76.080284 55.287605,76.863953 
z"/>
<path fill="#18467A" opacity="1.000000" stroke="none" 
	d="
M115.432632,91.855804 
	C114.083755,88.498573 112.899094,84.857689 112.239227,81.048676 
	C112.764015,80.880539 113.225319,80.962364 113.225319,80.962364 
	C113.169609,81.135406 113.113907,81.308441 113.095230,81.993126 
	C113.418922,82.624924 113.705597,82.745079 113.992271,82.865242 
	C114.261375,83.409164 114.530479,83.953094 114.930450,85.107803 
	C115.298332,86.362198 115.535339,87.005821 115.772346,87.649437 
	C115.713844,88.957016 115.655350,90.264587 115.432632,91.855804 
z"/>
<path fill="#F2F5F5" opacity="1.000000" stroke="none" 
	d="
M133.669006,80.845543 
	C134.122299,81.844421 134.294189,82.735268 134.727966,83.848358 
	C134.561325,84.683746 134.132828,85.296898 133.283585,85.742538 
	C132.680206,85.287971 132.421692,85.113136 131.788635,85.044952 
	C130.995071,85.312149 130.500214,85.584908 129.700836,85.907104 
	C128.988754,85.990677 128.581177,86.024803 128.173584,86.058929 
	C126.237694,84.243568 126.957390,83.352493 129.767883,83.230240 
	C130.958389,83.603996 131.617767,83.751785 133.574921,84.190453 
	C132.032333,82.859657 131.501236,82.401482 130.970154,81.943314 
	C131.775970,81.541382 132.581787,81.139442 133.669006,80.845543 
z"/>
<path fill="#9AD5E1" opacity="1.000000" stroke="none" 
	d="
M128.016800,86.290405 
	C128.581177,86.024803 128.988754,85.990677 129.962006,85.966217 
	C130.703461,86.007210 130.879272,86.038544 131.061600,86.341690 
	C131.334503,87.044899 131.600876,87.476318 131.867249,87.907738 
	C130.398636,89.234016 128.930008,90.560303 126.951431,91.841324 
	C126.349648,90.882256 126.257828,89.968445 126.358917,88.913147 
	C126.787796,88.531807 126.915039,88.243874 126.933556,87.907845 
	C127.242378,87.445862 127.551201,86.983871 128.016800,86.290405 
z"/>
<path fill="#21527A" opacity="1.000000" stroke="none" 
	d="
M95.888077,60.628616 
	C95.100952,60.749870 94.401428,60.543869 93.228226,60.046219 
	C93.834198,58.167538 94.913841,56.580502 95.993492,54.993469 
	C96.499603,55.651810 97.005714,56.310146 97.852112,57.019444 
	C97.453499,58.147388 96.714592,59.224373 95.888077,60.628616 
z"/>
<path fill="#F2F5F5" opacity="1.000000" stroke="none" 
	d="
M114.107445,77.198441 
	C112.643440,76.682961 111.135406,75.844200 109.310661,74.870659 
	C112.185326,71.890709 112.729218,75.319328 114.107445,77.198441 
z"/>
<path fill="#385B9A" opacity="1.000000" stroke="none" 
	d="
M127.027176,146.451813 
	C129.153946,146.606262 131.359268,147.042969 133.779053,147.746063 
	C133.993530,148.012451 134.003433,147.997025 133.550415,147.982300 
	C131.869202,147.995636 130.641006,148.023712 129.412827,148.051788 
	C128.643784,147.612549 127.874756,147.173309 127.027176,146.451813 
z"/>
<path fill="#EFF2EE" opacity="1.000000" stroke="none" 
	d="
M45.068764,197.547913 
	C46.728302,197.439026 48.469543,197.675232 50.554798,198.091507 
	C50.898811,198.271561 50.718346,198.689957 50.585876,198.876114 
	C48.685760,198.672501 46.918118,198.282745 45.068764,197.547913 
z"/>
<path fill="#F2F5F5" opacity="1.000000" stroke="none" 
	d="
M126.166016,89.054642 
	C126.257828,89.968445 126.349648,90.882256 126.664070,92.070190 
	C126.429726,92.810143 125.972778,93.275948 125.275208,93.815903 
	C125.127014,91.965584 125.219452,90.041138 125.684944,88.326599 
	C126.094002,88.709221 126.130013,88.881927 126.166016,89.054642 
z"/>
<path fill="#F2F5F5" opacity="1.000000" stroke="none" 
	d="
M114.160828,96.342422 
	C114.313492,95.637726 114.721138,95.130714 115.343330,94.378113 
	C116.342369,95.280014 117.126862,96.427505 117.914024,97.888542 
	C116.749733,97.648094 115.582771,97.094101 114.160828,96.342422 
z"/>
<path fill="#F2F5F5" opacity="1.000000" stroke="none" 
	d="
M113.559311,80.981354 
	C113.225319,80.962364 112.764015,80.880539 112.530563,80.857018 
	C112.933311,80.036606 113.569504,79.239716 114.343628,78.161392 
	C114.942680,78.424927 115.403801,78.969917 115.864929,79.514908 
	C115.207726,80.010048 114.550514,80.505188 113.559311,80.981354 
z"/>
<path fill="#172A40" opacity="1.000000" stroke="none" 
	d="
M55.452583,76.907822 
	C55.137520,76.080284 54.987434,75.296623 54.680153,74.148087 
	C54.888409,73.335724 55.253860,72.888222 55.817776,72.227783 
	C56.345745,72.501549 56.675247,72.988243 57.031425,74.099014 
	C57.052486,75.150848 57.046875,75.578606 56.829216,76.099487 
	C56.344246,76.368202 56.170277,76.613861 56.056435,76.960205 
	C56.017605,76.990837 55.942799,77.055565 55.942799,77.055565 
	C55.942799,77.055565 55.617565,76.951683 55.452583,76.907822 
z"/>
<path fill="#21527A" opacity="1.000000" stroke="none" 
	d="
M101.858231,51.740364 
	C101.200150,51.597652 100.761803,51.203743 100.323448,50.809837 
	C101.037575,50.323395 101.751701,49.836956 102.671974,49.532467 
	C102.611389,50.306000 102.344673,50.897583 101.858231,51.740364 
z"/>
<path fill="#E5ECE9" opacity="1.000000" stroke="none" 
	d="
M130.754761,82.066437 
	C131.501236,82.401482 132.032333,82.859657 133.574921,84.190453 
	C131.617767,83.751785 130.958389,83.603996 130.126038,83.216652 
	C130.072266,82.657845 130.267700,82.395332 130.754761,82.066437 
z"/>
<path fill="#094481" opacity="1.000000" stroke="none" 
	d="
M129.684570,148.360672 
	C130.641006,148.023712 131.869202,147.995636 133.556702,147.976334 
	C133.993591,148.249588 133.971191,148.514084 133.936829,149.176880 
	C132.602036,149.273285 131.279190,148.971405 129.684570,148.360672 
z"/>
<path fill="#F2F5F5" opacity="1.000000" stroke="none" 
	d="
M119.601410,77.045975 
	C119.206932,77.286697 118.814781,77.285011 118.424782,77.255180 
	C118.414169,77.254372 118.419472,76.808495 118.429573,76.807976 
	C118.820168,76.787941 119.212189,76.795654 119.601410,77.045975 
z"/>
<path fill="#F2F5F5" opacity="1.000000" stroke="none" 
	d="
M115.831848,87.288811 
	C115.535339,87.005821 115.298332,86.362198 115.090729,85.365967 
	C115.377213,85.651634 115.634277,86.289909 115.831848,87.288811 
z"/>
<path fill="#BEE6E9" opacity="1.000000" stroke="none" 
	d="
M126.358917,88.913147 
	C126.130013,88.881927 126.094002,88.709221 126.033142,88.273178 
	C126.008286,88.009834 126.471596,87.961090 126.702576,87.934464 
	C126.915039,88.243874 126.787796,88.531807 126.358917,88.913147 
z"/>
<path fill="#F2F5F5" opacity="1.000000" stroke="none" 
	d="
M113.909668,82.681717 
	C113.705597,82.745079 113.418922,82.624924 113.166428,82.256348 
	C113.459923,82.106834 113.668747,82.270256 113.909668,82.681717 
z"/>
<path fill="#F2F5F5" opacity="1.000000" stroke="none" 
	d="
M124.980209,94.753922 
	C124.821266,94.977356 124.650902,94.968445 124.225883,94.932098 
	C124.076408,94.619202 124.253548,94.389175 124.708748,94.137009 
	C124.914848,94.059448 124.968788,94.521568 124.980209,94.753922 
z"/>
<path fill="#DFF2EE" opacity="1.000000" stroke="none" 
	d="
M119.774887,99.002258 
	C119.995560,99.254730 119.864212,99.491875 119.516525,99.819336 
	C119.246399,99.809006 119.141022,99.679779 118.955872,99.313660 
	C119.075531,99.056343 119.274979,99.035927 119.774887,99.002258 
z"/>
<path fill="#93B4DF" opacity="1.000000" stroke="none" 
	d="
M104.186684,119.866684 
	C104.111961,119.485023 104.308830,119.312927 104.759644,119.147652 
	C104.951653,119.247261 104.957054,119.417107 104.916130,119.837502 
	C104.869804,120.088051 104.390961,119.999214 104.186684,119.866684 
z"/>
<path fill="#074483" opacity="1.000000" stroke="none" 
	d="
M107.728378,151.125473 
	C108.899055,154.793228 109.819656,158.563110 110.879517,162.687836 
	C109.123940,168.477295 107.229095,173.911896 105.174500,179.618073 
	C102.935638,186.344254 97.493210,188.831512 91.279770,190.764297 
	C87.499977,186.945007 84.274742,183.424850 80.873947,179.616898 
	C78.798882,177.551971 76.899368,175.774841 75.272240,173.774261 
	C75.689880,170.387192 75.835136,167.223572 76.394714,164.024216 
	C81.862564,162.590958 86.916084,161.193436 92.179672,160.017548 
	C94.584152,159.770935 96.778557,159.302719 99.324409,158.939545 
	C103.079231,160.454834 104.821999,159.420349 105.005196,155.639130 
	C105.063904,154.427231 105.704758,153.243546 106.079277,152.046951 
	C106.545624,151.773834 107.011963,151.500702 107.728378,151.125473 
z"/>
<path fill="#14293F" opacity="1.000000" stroke="none" 
	d="
M81.049507,179.904694 
	C84.274742,183.424850 87.499977,186.945007 90.922478,190.745361 
	C91.039703,191.443695 90.959663,191.861832 90.919151,192.596725 
	C90.497932,192.722977 90.037193,192.532455 89.316101,192.373672 
	C86.118790,189.151917 83.181831,185.898392 80.327507,182.185303 
	C80.623268,181.118713 80.836388,180.511703 81.049507,179.904694 
z"/>
<path fill="#1B2128" opacity="1.000000" stroke="none" 
	d="
M70.147751,192.210846 
	C67.213821,196.792831 62.761593,197.468369 57.434986,196.545624 
	C57.464882,193.295120 57.919434,190.485840 58.666466,187.663086 
	C59.550812,187.553345 60.142681,187.457062 60.828789,187.816101 
	C60.982231,188.573013 61.041443,188.874619 61.290474,189.427032 
	C62.660866,189.554398 63.841434,189.430939 65.138283,189.426422 
	C65.517334,189.420120 65.780106,189.294861 66.145302,188.960159 
	C66.247726,188.750702 66.428833,188.320969 66.667648,188.265579 
	C66.906464,188.210190 67.393135,188.135086 67.393135,188.135086 
	C67.393135,188.135086 67.884933,188.160721 68.052979,188.456421 
	C68.863274,189.905014 69.505516,191.057938 70.147751,192.210846 
z"/>
<path fill="#212C38" opacity="1.000000" stroke="none" 
	d="
M58.373989,187.676544 
	C57.919434,190.485840 57.464882,193.295120 56.999619,196.498703 
	C55.251339,197.234253 53.513771,197.575516 51.379723,197.814529 
	C51.019081,197.038635 51.054924,196.364990 51.374844,195.457306 
	C52.603867,194.852875 53.548813,194.482468 54.493759,194.112061 
	C53.057865,191.437286 51.621967,188.762482 50.186069,186.087692 
	C50.144547,185.635239 50.103024,185.182770 50.292343,184.266129 
	C50.717213,183.522537 50.911240,183.243149 51.384315,183.157196 
	C53.900234,184.792618 56.137112,186.234589 58.373989,187.676544 
z"/>
<path fill="#0E1E2E" opacity="1.000000" stroke="none" 
	d="
M80.873947,179.616898 
	C80.836388,180.511703 80.623268,181.118713 80.138206,181.909821 
	C77.886070,181.829315 75.911659,178.986740 73.310547,181.971878 
	C72.433914,181.531723 72.170677,181.200287 71.960709,180.516754 
	C72.052650,178.125702 72.091324,176.086792 72.488625,174.036255 
	C73.564789,174.015671 74.282318,174.006699 74.999855,173.997711 
	C76.899368,175.774841 78.798882,177.551971 80.873947,179.616898 
z"/>
<path fill="#35373F" opacity="1.000000" stroke="none" 
	d="
M71.907440,180.868866 
	C72.170677,181.200287 72.433914,181.531723 72.985199,182.009628 
	C72.715858,185.327454 72.158463,188.498779 71.248154,191.687744 
	C70.609985,191.831924 70.324738,191.958511 70.039490,192.085083 
	C70.039490,192.085083 70.132744,192.115204 70.140244,192.163025 
	C69.505516,191.057938 68.863274,189.905014 68.084969,188.100281 
	C67.966743,186.975937 67.984573,186.503448 68.245193,185.851837 
	C68.654900,185.106262 68.821808,184.539810 69.035583,183.652145 
	C69.756546,182.513672 70.430641,181.696396 71.305740,180.902100 
	C71.506744,180.925064 71.907440,180.868866 71.907440,180.868866 
z"/>
<path fill="#1B2128" opacity="1.000000" stroke="none" 
	d="
M70.300598,192.234436 
	C70.324738,191.958511 70.609985,191.831924 70.993263,191.901855 
	C70.914764,192.193497 70.738235,192.288651 70.300598,192.234436 
z"/>
<path fill="#97DAE8" opacity="1.000000" stroke="none" 
	d="
M129.113037,107.847191 
	C128.825928,106.900414 128.528732,105.975769 128.124039,104.716652 
	C131.555435,106.168182 134.747818,107.518608 138.024689,108.597183 
	C139.095764,108.263840 140.082336,108.202347 141.589966,108.485687 
	C147.081741,110.999718 148.197815,110.573318 149.200195,106.122086 
	C149.492203,105.994652 149.719986,105.794235 150.298920,105.132988 
	C152.793396,104.144211 154.872498,103.543297 156.951614,102.942375 
	C157.812927,104.827431 158.674255,106.712479 159.631683,109.113159 
	C152.080383,114.579979 143.322540,117.975945 138.909988,127.119179 
	C137.517242,130.005112 133.961380,131.109344 129.966812,128.549530 
	C125.110466,125.437492 121.814491,122.064369 122.113251,115.983696 
	C122.158699,115.058846 121.387283,114.093864 120.993698,113.147446 
	C120.707336,112.934845 120.420967,112.722244 119.991028,112.279900 
	C119.883118,111.860138 119.918793,111.670120 120.391434,111.226425 
	C121.556198,110.968811 122.283989,110.964874 123.011772,110.960938 
	C123.011772,110.960938 123.411171,111.067574 123.737526,111.443199 
	C126.052513,111.891487 128.041153,111.964149 130.029785,112.036812 
	C130.029785,112.036812 130.000000,112.000000 130.249298,111.924347 
	C130.674316,111.568489 130.850052,111.288292 131.025803,111.008102 
	C131.036057,110.839310 131.046310,110.670517 130.999481,109.933304 
	C130.326523,108.882233 129.710648,108.399574 129.094788,107.916924 
	C129.094788,107.916924 129.102966,107.869316 129.113037,107.847191 
z"/>
<path fill="#182432" opacity="1.000000" stroke="none" 
	d="
M120.831879,113.512329 
	C121.387283,114.093864 122.158699,115.058846 122.113251,115.983696 
	C121.814491,122.064369 125.110466,125.437492 129.966812,128.549530 
	C133.961380,131.109344 137.517242,130.005112 138.909988,127.119179 
	C143.322540,117.975945 152.080383,114.579979 159.914124,109.327568 
	C160.100464,109.026344 160.594208,109.024216 160.841476,109.046799 
	C161.501266,110.481018 161.913803,111.892647 162.321503,113.305679 
	C155.007263,116.954819 147.503189,119.964119 143.599747,128.327911 
	C140.862900,134.192078 128.560898,133.440704 123.288765,127.771858 
	C119.462265,123.657433 119.101433,118.968437 120.831879,113.512329 
z"/>
<path fill="#0B80BA" opacity="1.000000" stroke="none" 
	d="
M51.105274,182.963760 
	C50.911240,183.243149 50.717213,183.522537 50.297550,183.925095 
	C43.473629,181.589172 36.425938,179.925293 30.371582,176.503754 
	C18.160807,169.602936 12.621933,157.875610 10.519662,144.493866 
	C10.195242,142.428802 12.041003,140.022812 12.957573,137.428284 
	C13.800221,136.745834 14.568427,136.409576 15.707605,136.446655 
	C18.608742,142.056290 23.951849,142.098526 28.525572,143.139526 
	C30.418465,143.570358 34.457508,142.372452 34.531654,141.620544 
	C34.826340,138.632172 34.268284,135.290680 30.005928,134.744293 
	C30.001614,134.498001 29.994370,134.005417 29.997795,133.680389 
	C30.004345,132.922638 30.007467,132.489929 30.438070,132.037216 
	C32.291000,131.973373 33.716450,131.929520 35.520821,131.919373 
	C41.074112,133.424530 46.274418,134.812958 51.407413,136.416840 
	C52.995064,136.912918 54.399548,137.995178 56.057915,139.109512 
	C58.365818,141.667755 60.737396,143.750366 62.590286,146.221832 
	C65.891197,150.624741 68.878464,155.262787 71.732491,160.076782 
	C71.372543,161.149231 71.097542,161.973679 71.209869,162.741440 
	C72.101326,168.834198 71.789597,169.076752 65.941444,170.176407 
	C64.179489,170.507706 62.654770,172.100601 61.006981,173.085037 
	C60.992588,173.054489 61.050045,173.019043 60.815758,173.068069 
	C60.296719,173.295578 60.109356,173.546722 59.722099,173.938995 
	C58.974560,174.332626 58.524292,174.657791 57.758507,175.110168 
	C55.330418,177.812836 53.217846,180.388306 51.105274,182.963760 
z"/>
<path fill="#1B2128" opacity="1.000000" stroke="none" 
	d="
M50.129837,186.504227 
	C51.621967,188.762482 53.057865,191.437286 54.493759,194.112061 
	C53.548813,194.482468 52.603867,194.852875 51.389252,195.119705 
	C50.770927,192.317673 50.422268,189.619217 50.129837,186.504227 
z"/>
<path fill="#DFF2EE" opacity="1.000000" stroke="none" 
	d="
M148.812805,106.133102 
	C148.197815,110.573318 147.081741,110.999718 141.962830,108.477013 
	C144.018219,107.463722 146.221802,106.803925 148.812805,106.133102 
z"/>
<path fill="#DFF2EE" opacity="1.000000" stroke="none" 
	d="
M156.965027,102.617577 
	C154.872498,103.543297 152.793396,104.144211 150.391357,104.921860 
	C149.283646,99.120872 154.443726,102.911392 156.627106,101.144745 
	C156.952576,101.425751 156.965515,101.859261 156.965027,102.617577 
z"/>
<path fill="#94C1C1" opacity="1.000000" stroke="none" 
	d="
M132.020844,87.668434 
	C131.600876,87.476318 131.334503,87.044899 131.272003,86.214066 
	C131.738968,85.607368 131.942780,85.352661 132.087311,85.050514 
	C132.421692,85.113136 132.680206,85.287971 132.977325,85.785904 
	C132.786011,86.474243 132.480225,86.951691 132.020844,87.668434 
z"/>
<path fill="#0B4480" opacity="1.000000" stroke="none" 
	d="
M95.996094,54.996315 
	C94.913841,56.580502 93.834198,58.167538 92.978943,59.924057 
	C93.033913,60.374760 92.864494,60.655972 92.115601,60.979286 
	C90.305786,60.395550 89.075432,59.769718 87.856033,59.129913 
	C87.866974,59.115940 87.873657,59.081081 87.793839,58.841759 
	C87.451462,58.399910 87.188919,58.197384 86.871964,57.840286 
	C86.817566,57.685711 86.798943,57.358501 86.766762,57.077988 
	C86.461876,56.557323 86.189163,56.317177 85.924606,56.036373 
	C85.932755,55.995716 85.891884,56.069481 85.896957,55.753387 
	C85.523949,54.991238 85.145866,54.545181 84.527237,53.868023 
	C82.122719,50.102661 79.958740,46.568401 77.794769,43.034145 
	C78.996811,42.092201 80.198860,41.150249 81.874519,40.325058 
	C83.527672,40.950890 84.707214,41.459961 85.999557,42.307388 
	C87.470596,44.778896 88.828812,46.912052 90.154076,49.323521 
	C90.147850,49.973434 90.174576,50.345036 90.199982,51.093788 
	C92.024353,53.627495 93.683731,54.126404 94.986977,50.994362 
	C94.995415,50.997322 94.986290,50.977375 95.309174,51.019108 
	C95.752075,52.370922 95.872101,53.681000 95.992119,54.991081 
	C95.992119,54.991081 95.998695,54.999168 95.996094,54.996315 
z"/>
<path fill="#5594A8" opacity="1.000000" stroke="none" 
	d="
M77.598267,43.038506 
	C79.958740,46.568401 82.122719,50.102661 84.590004,54.159531 
	C85.226166,55.144585 85.559021,55.607033 85.891884,56.069481 
	C85.891884,56.069481 85.932755,55.995716 85.994690,56.295429 
	C86.304070,56.849594 86.551506,57.104046 86.798943,57.358498 
	C86.798943,57.358501 86.817566,57.685711 86.946991,58.087536 
	C87.342155,58.686600 87.607910,58.883842 87.873657,59.081081 
	C87.873657,59.081081 87.866974,59.115940 87.835846,59.433624 
	C87.214951,60.153950 86.625175,60.556591 85.714600,60.843208 
	C83.206711,59.480499 81.019615,58.233807 78.689499,56.689095 
	C76.300270,52.212807 72.668861,50.766556 68.092896,50.692917 
	C67.995041,49.441402 67.934464,48.606674 67.878403,47.586403 
	C67.882912,47.400867 67.882042,47.029686 68.286621,47.001228 
	C71.463806,45.657524 74.236412,44.342270 77.009018,43.027020 
	C77.009018,43.027023 77.401772,43.042870 77.598267,43.038506 
z"/>
<path fill="#4BBCD3" opacity="1.000000" stroke="none" 
	d="
M76.874710,42.709064 
	C74.236412,44.342270 71.463806,45.657524 68.025223,46.875484 
	C66.593292,46.189762 65.827347,45.601326 65.022125,44.613907 
	C64.319351,41.452671 63.655869,38.690422 62.992382,35.928169 
	C65.856178,32.978081 68.438911,33.521381 70.995758,36.428764 
	C72.816444,38.499058 74.819016,40.409389 76.874710,42.709064 
z"/>
<path fill="#4CB7CF" opacity="1.000000" stroke="none" 
	d="
M56.790665,52.116989 
	C56.378159,51.485661 55.965660,50.854328 55.319218,50.059860 
	C55.085278,49.896721 55.034180,49.951450 55.052822,49.664658 
	C54.710514,48.923409 54.349567,48.468952 53.988617,48.014492 
	C53.329227,46.897701 52.669842,45.780910 51.970894,44.320957 
	C53.752846,42.406281 55.574356,40.834770 57.845734,39.456390 
	C59.258694,42.066864 60.221794,44.484200 61.078880,47.220596 
	C60.001541,48.667355 59.030216,49.795048 57.912075,51.182819 
	C57.440392,51.667595 57.115528,51.892296 56.790665,52.116989 
z"/>
<path fill="#2096D1" opacity="1.000000" stroke="none" 
	d="
M60.980843,25.883455 
	C59.161640,27.169373 57.424477,28.292135 55.524849,28.772690 
	C54.977718,28.911100 53.122536,26.745367 53.302662,26.412209 
	C54.248253,24.663258 55.334503,22.490873 56.966175,21.714407 
	C60.567856,20.000477 60.994350,22.746096 60.980843,25.883455 
z"/>
<path fill="#B1E9F5" opacity="1.000000" stroke="none" 
	d="
M61.184895,46.901535 
	C60.221794,44.484200 59.258694,42.066864 58.148800,39.332253 
	C59.448826,38.060928 60.895649,37.106876 62.667427,36.040497 
	C63.655869,38.690422 64.319351,41.452671 64.824150,44.866791 
	C63.505268,45.979618 62.345081,46.440575 61.184895,46.901535 
z"/>
<path fill="#25527F" opacity="1.000000" stroke="none" 
	d="
M85.886749,41.969032 
	C84.707214,41.459961 83.527672,40.950890 82.167549,40.173832 
	C82.018204,39.362865 82.049454,38.819881 82.121635,37.867573 
	C83.185371,37.351856 84.208176,37.245468 85.684769,37.121910 
	C86.138550,37.104740 86.395844,37.311352 86.288345,37.686157 
	C86.082817,39.363651 85.984779,40.666340 85.886749,41.969032 
z"/>
<path fill="#0C7FBA" opacity="1.000000" stroke="none" 
	d="
M102.548012,92.121887 
	C102.888260,92.929367 102.897636,93.635117 102.965698,94.692780 
	C103.024399,95.044685 102.996140,95.016434 102.723114,95.157166 
	C102.311691,95.915764 102.173286,96.533615 102.034882,97.151474 
	C101.058304,101.477180 100.216194,105.839462 99.053284,110.114479 
	C98.386337,112.566277 97.198601,114.876411 96.059669,117.552963 
	C93.187805,118.200737 90.501587,118.545868 87.268311,118.644760 
	C86.126053,117.625145 85.269699,116.939148 84.977036,116.064529 
	C82.681702,109.204895 78.968735,104.989868 70.966843,107.928627 
	C70.112793,108.242287 69.015099,107.892570 68.008545,107.422943 
	C67.282585,101.270142 68.101555,95.085396 63.061787,90.472900 
	C63.063629,90.276604 63.024734,89.885933 63.027061,89.513000 
	C64.399216,88.068764 65.769043,86.997467 67.138870,85.926170 
	C70.754707,87.461906 74.668983,88.535622 77.920273,90.635735 
	C83.569336,94.284645 88.216751,92.759682 92.869850,89.051491 
	C94.138115,88.040756 95.496284,87.142838 96.852905,86.164513 
	C98.748138,88.233360 100.482643,90.126755 102.548012,92.121887 
z"/>
<path fill="#F4C2AC" opacity="1.000000" stroke="none" 
	d="
M78.832527,56.987118 
	C81.019615,58.233807 83.206711,59.480499 85.794266,61.151070 
	C87.083710,62.130039 87.972702,62.685131 88.861687,63.240223 
	C87.720757,67.820770 87.634674,73.088470 81.168938,74.540825 
	C81.763588,75.842567 82.326378,77.074562 82.915726,78.670883 
	C82.720848,79.307350 82.499420,79.579491 81.895889,80.095642 
	C81.249809,80.500610 81.053131,80.721489 80.923767,81.002296 
	C80.923767,81.002296 80.994423,81.014061 80.663330,81.073029 
	C74.556862,81.292839 71.328674,76.884796 67.210197,73.527512 
	C66.786568,71.789482 66.472351,70.401337 66.148277,68.616249 
	C65.726807,64.528481 65.315193,60.837658 65.168045,57.078098 
	C65.611076,56.973354 65.789650,56.937344 66.183014,57.182693 
	C67.908867,58.128544 69.532364,58.616196 70.909363,59.491577 
	C74.635529,61.860340 77.092438,60.669216 78.832527,56.987118 
z"/>
<path fill="#1C2A38" opacity="1.000000" stroke="none" 
	d="
M67.319618,73.877388 
	C71.328674,76.884796 74.556862,81.292839 80.670464,81.037933 
	C77.980339,85.768814 73.214211,83.522804 69.105400,83.775963 
	C67.683281,83.863586 66.218910,83.265465 64.073334,82.885117 
	C62.558975,82.247711 61.745117,81.705765 60.862083,80.879730 
	C60.530865,80.074432 60.268822,79.553230 60.387569,78.946625 
	C61.173004,76.585785 61.577652,74.310341 62.322891,72.151001 
	C64.215530,72.803871 65.767570,73.340630 67.319618,73.877388 
z"/>
<path fill="#1B7EB1" opacity="1.000000" stroke="none" 
	d="
M60.931259,81.163811 
	C61.745117,81.705765 62.558975,82.247711 63.642231,82.905350 
	C64.874901,83.810822 65.838173,84.600601 66.970154,85.658279 
	C65.769043,86.997467 64.399216,88.068764 62.751759,89.449104 
	C61.323067,90.165977 60.172009,90.573807 59.020950,90.981644 
	C56.831894,87.678772 54.642830,84.375908 52.272930,80.800194 
	C53.578518,80.881638 54.976006,80.968803 56.738869,81.173004 
	C57.192905,81.337830 57.281559,81.385635 57.370213,81.433441 
	C57.251442,81.285332 57.132668,81.137230 57.013897,80.989120 
	C57.048092,80.747993 57.082287,80.506874 57.492329,80.045746 
	C58.889202,80.271767 59.910233,80.717789 60.931259,81.163811 
z"/>
<path fill="#18467A" opacity="1.000000" stroke="none" 
	d="
M102.994080,87.003860 
	C102.743652,86.660164 102.497803,86.313011 102.272797,85.952850 
	C102.267700,85.944695 102.498978,85.788879 102.619995,85.701942 
	C102.738579,85.972244 102.857170,86.242538 102.994980,86.749153 
	C103.014206,86.985474 103.001152,86.998856 102.994080,87.003860 
z"/>
<path fill="#1C2A38" opacity="1.000000" stroke="none" 
	d="
M81.132225,80.939102 
	C81.053131,80.721489 81.249809,80.500610 81.736626,80.309227 
	C81.819199,80.546227 81.612938,80.745262 81.132225,80.939102 
z"/>
<path fill="#6882BC" opacity="1.000000" stroke="none" 
	d="
M46.004379,122.944336 
	C49.594833,120.678772 56.037769,121.705986 55.277214,115.205299 
	C57.789413,113.962776 59.899555,112.919106 62.063095,111.474937 
	C62.116493,111.074432 62.042664,111.066185 62.307755,111.010498 
	C62.739819,110.644783 62.906792,110.334770 63.041229,110.013969 
	C63.008694,110.003189 63.036961,110.065636 63.279953,109.898262 
	C64.053955,109.227852 64.584969,108.724808 65.347610,108.448822 
	C66.167030,109.552475 67.465347,110.802925 67.231560,111.247238 
	C65.128448,115.244217 62.883945,119.182808 60.418343,122.967445 
	C58.774422,125.490829 56.702835,127.735603 54.538113,130.231293 
	C53.457161,130.605469 52.660744,130.853424 51.539055,131.006897 
	C48.846230,128.632004 46.478672,126.351578 44.355606,123.942490 
	C45.068195,123.524002 45.536289,123.234169 46.004379,122.944336 
z"/>
<path fill="#055198" opacity="1.000000" stroke="none" 
	d="
M58.869968,91.292709 
	C60.172009,90.573807 61.323067,90.165977 62.749428,89.822037 
	C63.024734,89.885933 63.063629,90.276604 63.032593,90.934265 
	C63.013359,97.749825 63.025158,103.907730 63.036957,110.065636 
	C63.036961,110.065636 63.008694,110.003189 62.800995,110.110008 
	C62.409756,110.499947 62.226208,110.783066 62.042664,111.066185 
	C62.042664,111.066185 62.116493,111.074432 62.135262,111.107254 
	C58.339359,111.683228 56.107010,109.746284 54.269360,106.605843 
	C52.457111,103.508804 50.171787,100.688599 48.028389,97.420860 
	C52.277622,96.693352 56.189728,95.502983 58.869968,91.292709 
z"/>
<path fill="#117BB7" opacity="1.000000" stroke="none" 
	d="
M33.151253,106.005783 
	C31.395025,105.338364 29.638796,104.670937 27.520573,103.992546 
	C25.221848,102.389061 23.718378,100.499306 26.018578,98.294128 
	C28.716339,95.707802 34.345554,95.878105 36.774101,98.266350 
	C39.852242,101.293396 36.256527,102.370491 34.721436,104.587936 
	C33.961533,105.349014 33.556393,105.677399 33.151253,106.005783 
z"/>
<path fill="#1B2F43" opacity="1.000000" stroke="none" 
	d="
M33.133484,106.337128 
	C33.556393,105.677399 33.961533,105.349014 34.607498,104.912048 
	C42.116783,106.562851 46.060719,112.702507 45.978127,122.516541 
	C45.536289,123.234169 45.068195,123.524002 43.983036,123.743614 
	C42.272842,123.804810 41.179718,123.936226 40.206234,123.734619 
	C44.433044,120.085129 43.315556,116.484108 40.554604,113.162964 
	C39.131470,111.451088 37.032257,110.301254 35.238533,108.897461 
	C34.530926,108.154465 33.823318,107.411476 33.133484,106.337128 
z"/>
<path fill="#4C94AD" opacity="1.000000" stroke="none" 
	d="
M34.907791,109.040665 
	C37.032257,110.301254 39.131470,111.451088 40.554604,113.162964 
	C43.315556,116.484108 44.433044,120.085129 40.122055,124.069321 
	C38.326118,127.119919 36.734005,129.502777 35.141899,131.885651 
	C33.716450,131.929520 32.291000,131.973373 30.022049,132.015564 
	C27.794867,132.043579 26.411186,132.073257 24.629848,132.077423 
	C23.172779,132.059677 22.113361,132.067444 21.053946,132.075211 
	C23.231409,123.068169 28.748503,116.034019 34.907791,109.040665 
z"/>
<path fill="#1288C5" opacity="1.000000" stroke="none" 
	d="
M30.010244,134.990570 
	C34.268284,135.290680 34.826340,138.632172 34.531654,141.620544 
	C34.457508,142.372452 30.418465,143.570358 28.525572,143.139526 
	C23.951849,142.098526 18.608742,142.056290 16.026102,136.468063 
	C16.140432,136.092499 16.307236,136.068893 17.155403,136.019241 
	C21.731766,136.678055 25.626764,137.362930 29.785431,138.094162 
	C29.849224,137.213486 29.929733,136.102020 30.010244,134.990570 
z"/>
<path fill="#1B92CC" opacity="1.000000" stroke="none" 
	d="
M30.005928,134.744293 
	C29.929733,136.102020 29.849224,137.213486 29.785431,138.094162 
	C25.626764,137.362930 21.731766,136.678055 17.406425,135.990204 
	C18.232403,134.870789 19.488724,133.754349 20.899494,132.356567 
	C22.113361,132.067444 23.172779,132.059677 24.700974,132.434418 
	C26.777958,133.213089 28.386164,133.609253 29.994370,134.005417 
	C29.994370,134.005417 30.001614,134.498001 30.005928,134.744293 
z"/>
<path fill="#172A40" opacity="1.000000" stroke="none" 
	d="
M60.862083,80.879730 
	C59.910233,80.717789 58.889202,80.271767 57.560471,79.686852 
	C57.156952,79.229698 57.058746,78.912178 56.962940,78.312683 
	C56.967739,78.029968 57.049431,77.964264 57.341827,78.085419 
	C58.425072,78.481720 59.215927,78.756874 60.006779,79.032021 
	C60.268822,79.553230 60.530865,80.074432 60.862083,80.879730 
z"/>
<path fill="#172A40" opacity="1.000000" stroke="none" 
	d="
M56.928146,78.064316 
	C56.540047,78.027283 56.276081,77.838013 56.019730,77.293205 
	C55.942799,77.055565 56.017605,76.990837 56.293438,76.978195 
	C56.569271,76.965561 57.046406,76.968437 57.051384,77.217384 
	C57.056362,77.466331 57.049431,77.964264 57.049431,77.964264 
	C57.049431,77.964264 56.967739,78.029968 56.928146,78.064316 
z"/>
<path fill="#25527F" opacity="1.000000" stroke="none" 
	d="
M86.012299,36.998516 
	C86.063972,36.613884 86.241905,36.335480 86.659729,35.975758 
	C86.899620,35.894444 87.096077,36.127670 87.055496,36.415108 
	C86.825203,36.922405 86.618843,37.125343 86.395844,37.311352 
	C86.395844,37.311352 86.138550,37.104740 86.012299,36.998516 
z"/>
<path fill="#601829" opacity="1.000000" stroke="none" 
	d="
M86.288345,37.686157 
	C86.618843,37.125343 86.825203,36.922405 87.150871,36.534069 
	C98.105942,34.828289 98.692955,35.641060 94.874413,47.802452 
	C94.255165,48.373608 94.069962,48.582077 93.575180,48.893425 
	C92.195763,48.973820 91.191391,49.009514 90.187027,49.045204 
	C88.828812,46.912052 87.470596,44.778896 85.999557,42.307384 
	C85.984779,40.666340 86.082817,39.363651 86.288345,37.686157 
z"/>
<path fill="#21527A" opacity="1.000000" stroke="none" 
	d="
M96.270142,55.089401 
	C95.872101,53.681000 95.752075,52.370922 95.328262,50.769508 
	C95.070724,50.317707 95.116989,50.157238 95.163254,49.996773 
	C96.335365,50.819824 97.507469,51.642876 98.679581,52.465927 
	C97.969109,53.373192 97.258629,54.280457 96.270142,55.089401 
z"/>
<path fill="#AB272C" opacity="1.000000" stroke="none" 
	d="
M95.117233,49.684326 
	C95.116989,50.157238 95.070724,50.317707 95.005371,50.727776 
	C94.986290,50.977375 94.995415,50.997322 94.690788,51.140007 
	C93.280899,51.154732 92.175629,51.026764 91.257446,50.653732 
	C92.279762,49.888691 93.114998,49.368713 93.950226,48.848732 
	C94.069962,48.582077 94.255165,48.373608 94.710739,48.172562 
	C94.967491,48.538490 95.019348,48.955185 95.117233,49.684326 
z"/>
<path fill="#243038" opacity="1.000000" stroke="none" 
	d="
M54.026016,48.315800 
	C54.349567,48.468952 54.710514,48.923409 55.084461,49.684555 
	C54.752777,49.533195 54.408096,49.075153 54.026016,48.315800 
z"/>
<path fill="#43BBD2" opacity="1.000000" stroke="none" 
	d="
M98.972961,158.834488 
	C96.778557,159.302719 94.584152,159.770935 92.142044,159.702332 
	C89.887329,156.824203 87.835739,156.333649 84.850006,157.906708 
	C82.516235,159.136276 79.616516,159.291656 76.722466,159.663879 
	C75.134781,158.259186 73.128082,157.373047 72.566299,155.925949 
	C70.155457,149.715866 68.169731,143.340759 66.029083,137.025787 
	C69.308350,136.760452 72.584373,136.442047 75.867599,136.241455 
	C81.677528,135.886459 85.158546,133.185989 86.607468,127.269829 
	C87.030182,125.543839 89.850731,124.195908 91.846504,123.259079 
	C92.201637,123.092377 93.907028,125.802208 95.021713,127.563614 
	C95.568947,130.989456 95.591530,134.233536 96.718857,137.032715 
	C98.223038,140.767639 100.585503,144.156876 102.879745,147.889008 
	C102.423233,149.188339 101.666321,150.293289 100.640320,151.953323 
	C99.905136,154.617111 99.439049,156.725800 98.972961,158.834488 
z"/>
<path fill="#99BAE4" opacity="1.000000" stroke="none" 
	d="
M54.822647,130.105072 
	C56.702835,127.735603 58.774422,125.490829 60.418343,122.967445 
	C62.883945,119.182808 65.128448,115.244217 67.231560,111.247238 
	C67.465347,110.802925 66.167030,109.552475 65.711838,108.398376 
	C66.573090,108.030785 67.301758,107.940697 68.030434,107.850601 
	C69.015099,107.892570 70.112793,108.242287 70.966843,107.928627 
	C78.968735,104.989868 82.681702,109.204895 84.977036,116.064529 
	C85.269699,116.939148 86.126053,117.625145 86.932854,118.676361 
	C85.800529,121.625519 84.352608,124.250664 83.140770,126.980606 
	C81.822968,129.949265 80.700584,131.763947 76.618263,132.753357 
	C70.923500,134.133530 65.608673,135.306625 59.197678,133.911407 
	C57.290878,132.533752 56.056763,131.319412 54.822647,130.105072 
z"/>
<path fill="#4A8FA7" opacity="1.000000" stroke="none" 
	d="
M54.538113,130.231293 
	C56.056763,131.319412 57.290878,132.533752 58.776276,133.935364 
	C61.128132,134.983307 63.228706,135.843979 65.679184,136.865219 
	C68.169731,143.340759 70.155457,149.715866 72.566299,155.925949 
	C73.128082,157.373047 75.134781,158.259186 76.441536,159.804932 
	C75.589226,160.825317 74.772041,161.444183 73.714577,161.877762 
	C72.981834,161.062485 72.489365,160.432495 71.996895,159.802505 
	C68.878464,155.262787 65.891197,150.624741 62.590286,146.221832 
	C60.737396,143.750366 58.365818,141.667755 56.069138,138.761658 
	C54.561672,135.776031 53.213001,133.438690 51.864330,131.101364 
	C52.660744,130.853424 53.457161,130.605469 54.538113,130.231293 
z"/>
<path fill="#DFF2EE" opacity="1.000000" stroke="none" 
	d="
M122.971451,110.600403 
	C122.283989,110.964874 121.556198,110.968811 120.466690,110.946358 
	C119.513077,108.067802 118.921204,105.215645 118.658241,102.177017 
	C120.301819,104.740326 121.616478,107.490105 122.971451,110.600403 
z"/>
<path fill="#5295B0" opacity="1.000000" stroke="none" 
	d="
M108.041107,102.763016 
	C107.917297,102.738525 107.797966,102.451614 107.853416,102.070335 
	C108.033997,102.150841 108.039795,102.325722 108.041107,102.763016 
z"/>
<path fill="#074684" opacity="1.000000" stroke="none" 
	d="
M102.270325,97.112503 
	C102.173286,96.533615 102.311691,95.915764 102.741379,95.151741 
	C103.081001,95.197235 103.129341,95.388885 103.120850,96.075180 
	C103.064026,96.569824 102.918930,96.994980 102.918930,96.994980 
	C102.918930,96.994980 102.983719,96.975739 102.969543,96.944481 
	C102.955360,96.913223 102.505775,97.073532 102.270325,97.112503 
z"/>
<path fill="#21527A" opacity="1.000000" stroke="none" 
	d="
M89.204567,63.182816 
	C87.972702,62.685131 87.083710,62.130039 86.115067,61.267090 
	C86.625175,60.556591 87.214951,60.153950 87.824905,59.447598 
	C89.075432,59.769718 90.305786,60.395550 91.884438,61.080444 
	C91.337646,61.801472 90.442543,62.463436 89.204567,63.182816 
z"/>
<path fill="#4EA4BC" opacity="1.000000" stroke="none" 
	d="
M67.210197,73.527512 
	C65.767570,73.340630 64.215530,72.803871 62.164970,71.889519 
	C60.802982,70.967697 59.939514,70.423470 59.076042,69.879242 
	C58.344650,64.231163 57.613255,58.583080 56.836262,52.525993 
	C57.115528,51.892296 57.440392,51.667595 58.156616,51.316597 
	C59.099125,52.059006 59.650272,52.927719 60.143661,54.176781 
	C60.726494,57.337936 61.044479,60.249981 62.106094,62.859497 
	C63.013893,65.090904 64.774651,66.975304 66.158134,69.013191 
	C66.472351,70.401337 66.786568,71.789482 67.210197,73.527512 
z"/>
<path fill="#37434E" opacity="1.000000" stroke="none" 
	d="
M59.049049,70.236397 
	C59.939514,70.423470 60.802982,70.967697 61.824375,71.773407 
	C61.577652,74.310341 61.173004,76.585785 60.387569,78.946625 
	C59.215927,78.756874 58.425072,78.481720 57.341827,78.085419 
	C57.049431,77.964264 57.056362,77.466331 57.054520,76.977036 
	C57.052677,76.487740 57.041264,76.006363 57.041264,76.006363 
	C57.046875,75.578606 57.052486,75.150848 57.073509,74.404007 
	C57.733303,72.921135 58.377678,71.757347 59.049049,70.236397 
z"/>
<path fill="#93B4DF" opacity="1.000000" stroke="none" 
	d="
M103.085129,96.948883 
	C102.918930,96.994980 103.064026,96.569824 103.163742,96.368553 
	C103.354889,96.352882 103.457527,96.534660 103.523598,96.728897 
	C103.531860,96.753166 103.346809,96.843216 103.085129,96.948883 
z"/>
<path fill="#DFF2EE" opacity="1.000000" stroke="none" 
	d="
M129.636932,112.011810 
	C128.041153,111.964149 126.052513,111.891487 123.942169,111.472214 
	C125.628334,111.412682 127.436211,111.699753 129.636932,112.011810 
z"/>
<path fill="#DFF2EE" opacity="1.000000" stroke="none" 
	d="
M129.182526,108.199478 
	C129.710648,108.399574 130.326523,108.882233 130.979126,109.680466 
	C130.434006,109.491371 129.852127,108.986702 129.182526,108.199478 
z"/>
<path fill="#DFF2EE" opacity="1.000000" stroke="none" 
	d="
M130.800690,111.115829 
	C130.850052,111.288292 130.674316,111.568489 130.263123,111.943336 
	C130.110794,111.699562 130.293427,111.428093 130.800690,111.115829 
z"/>
<path fill="#2C92C5" opacity="1.000000" stroke="none" 
	d="
M99.324402,158.939545 
	C99.439049,156.725800 99.905136,154.617111 100.580048,152.294769 
	C102.402145,151.882111 104.015434,151.683121 105.853996,151.765533 
	C105.704758,153.243546 105.063904,154.427231 105.005196,155.639130 
	C104.821999,159.420349 103.079231,160.454834 99.324402,158.939545 
z"/>
<path fill="#FDFEFD" opacity="1.000000" stroke="none" 
	d="
M135.997009,80.996170 
	C135.906937,81.033310 135.819824,81.074226 135.870026,81.060356 
	C136.007324,81.005569 136.000000,80.999947 135.997009,80.996170 
z"/>
<path fill="#DEEFEC" opacity="1.000000" stroke="none" 
	d="
M131.788635,85.044952 
	C131.942780,85.352661 131.738968,85.607368 131.265472,85.942261 
	C130.879272,86.038544 130.703461,86.007210 130.266510,85.916771 
	C130.500214,85.584908 130.995071,85.312149 131.788635,85.044952 
z"/>
<path fill="#243038" opacity="1.000000" stroke="none" 
	d="
M56.829216,76.099487 
	C57.041264,76.006363 57.052677,76.487740 57.049541,76.728088 
	C57.046406,76.968437 56.569271,76.965561 56.332268,76.947563 
	C56.170277,76.613861 56.344246,76.368202 56.829216,76.099487 
z"/>
<path fill="#0C4378" opacity="1.000000" stroke="none" 
	d="
M71.732491,160.076782 
	C72.489365,160.432495 72.981834,161.062485 73.769348,162.192688 
	C74.703064,163.148575 75.341728,163.604263 75.980392,164.059967 
	C75.835136,167.223572 75.689880,170.387192 75.272240,173.774261 
	C74.282318,174.006699 73.564789,174.015671 72.279984,173.703735 
	C68.749573,173.325775 65.786430,173.268768 62.522224,173.203369 
	C61.821232,173.168518 61.421303,173.142059 61.021370,173.115585 
	C62.654770,172.100601 64.179489,170.507706 65.941444,170.176407 
	C71.789597,169.076752 72.101326,168.834198 71.209869,162.741440 
	C71.097542,161.973679 71.372543,161.149231 71.732491,160.076782 
z"/>
<path fill="#1378B1" opacity="1.000000" stroke="none" 
	d="
M76.394714,164.024216 
	C75.341728,163.604263 74.703064,163.148575 74.009628,162.377960 
	C74.772041,161.444183 75.589226,160.825317 76.687340,160.065399 
	C79.616516,159.291656 82.516235,159.136276 84.850006,157.906708 
	C87.835739,156.333649 89.887329,156.824203 91.931984,159.480713 
	C86.916084,161.193436 81.862564,162.590958 76.394714,164.024216 
z"/>
<path fill="#6A7882" opacity="1.000000" stroke="none" 
	d="
M51.384319,183.157196 
	C53.217846,180.388306 55.330418,177.812836 58.055161,175.260956 
	C60.452629,177.938217 62.237923,180.591888 64.060760,183.435654 
	C64.098297,183.625732 64.059341,184.011261 63.877392,184.225571 
	C63.613335,184.608353 63.531227,184.776840 63.340279,184.923950 
	C63.231434,184.902603 63.054527,185.036453 62.802135,185.172668 
	C61.944679,185.992844 61.339615,186.676804 60.734550,187.360779 
	C60.142681,187.457062 59.550812,187.553345 58.666466,187.663086 
	C56.137112,186.234589 53.900234,184.792618 51.384319,183.157196 
z"/>
<path fill="#AC2836" opacity="1.000000" stroke="none" 
	d="
M66.428833,188.320969 
	C66.428833,188.320969 66.247726,188.750702 65.882942,188.942322 
	C65.352776,189.191788 65.187386,189.249649 65.022003,189.307495 
	C63.841434,189.430939 62.660866,189.554398 61.525238,189.268784 
	C62.029949,188.533142 62.489727,188.206589 63.249741,187.883636 
	C64.034386,187.584976 64.518791,187.282700 65.291153,187.140442 
	C65.862350,187.640625 66.145592,187.980804 66.428833,188.320969 
z"/>
<path fill="#292327" opacity="1.000000" stroke="none" 
	d="
M62.949505,187.880020 
	C62.489727,188.206589 62.029949,188.533142 61.335411,189.017960 
	C61.041443,188.874619 60.982231,188.573013 60.828785,187.816086 
	C61.339615,186.676804 61.944679,185.992844 62.896423,185.412521 
	C63.145241,186.304108 63.047371,187.092072 62.949505,187.880020 
z"/>
<path fill="#79232A" opacity="1.000000" stroke="none" 
	d="
M66.667648,188.265579 
	C66.145592,187.980804 65.862350,187.640625 65.417694,186.865265 
	C66.171654,186.297028 67.087036,186.163986 68.002411,186.030945 
	C67.984573,186.503448 67.966743,186.975937 67.916916,187.804581 
	C67.884933,188.160721 67.393135,188.135086 67.393135,188.135086 
	C67.393135,188.135086 66.906464,188.210190 66.667648,188.265579 
z"/>
<path fill="#35373F" opacity="1.000000" stroke="none" 
	d="
M65.138283,189.426422 
	C65.187386,189.249649 65.352776,189.191788 65.780518,189.151764 
	C65.780106,189.294861 65.517334,189.420120 65.138283,189.426422 
z"/>
<path fill="#6F7C85" opacity="1.000000" stroke="none" 
	d="
M62.823280,173.211761 
	C65.786430,173.268768 68.749573,173.325775 71.921356,173.715332 
	C72.091324,176.086792 72.052650,178.125702 71.960709,180.516754 
	C71.907440,180.868866 71.506744,180.925064 71.126854,180.641922 
	C69.820976,180.542694 68.894981,180.726608 67.711327,180.910553 
	C67.281853,180.910416 67.110054,180.910233 66.827362,180.595337 
	C65.418739,177.924347 64.121010,175.568039 62.823280,173.211761 
z"/>
<path fill="#501922" opacity="1.000000" stroke="none" 
	d="
M68.245201,185.851837 
	C67.087036,186.163986 66.171654,186.297028 65.129745,186.705231 
	C64.518791,187.282700 64.034386,187.584976 63.249741,187.883636 
	C63.047371,187.092072 63.145241,186.304108 63.148819,185.276306 
	C63.054527,185.036453 63.231434,184.902603 63.666740,184.874847 
	C64.434059,184.576263 64.766068,184.305466 65.313080,183.858948 
	C65.534233,183.330292 65.540390,182.977341 65.586205,182.599289 
	C65.625862,182.574188 65.653503,182.484467 65.955826,182.656235 
	C66.484238,182.879105 66.710342,182.930222 67.201187,183.089447 
	C67.973518,183.456161 68.481117,183.714752 68.988724,183.973343 
	C68.821808,184.539810 68.654900,185.106262 68.245201,185.851837 
z"/>
<path fill="#221F24" opacity="1.000000" stroke="none" 
	d="
M69.035583,183.652145 
	C68.481117,183.714752 67.973518,183.456161 67.324936,182.827332 
	C67.445625,181.941574 67.707314,181.426056 67.968994,180.910522 
	C68.894981,180.726608 69.820976,180.542694 70.925842,180.618958 
	C70.430641,181.696396 69.756546,182.513672 69.035583,183.652145 
z"/>
<path fill="#EBF3F4" opacity="1.000000" stroke="none" 
	d="
M51.539055,131.006897 
	C53.213001,133.438690 54.561672,135.776031 55.899120,138.461212 
	C54.399548,137.995178 52.995064,136.912918 51.407413,136.416840 
	C46.274418,134.812958 41.074112,133.424530 35.520821,131.919373 
	C36.734005,129.502777 38.326118,127.119919 40.002411,124.402351 
	C41.179718,123.936226 42.272842,123.804810 43.738541,123.872269 
	C46.478672,126.351578 48.846230,128.632004 51.539055,131.006897 
z"/>
<path fill="#B0B7BD" opacity="1.000000" stroke="none" 
	d="
M62.522224,173.203369 
	C64.121010,175.568039 65.418739,177.924347 66.623901,180.759094 
	C66.238731,181.653198 65.946121,182.068832 65.653503,182.484467 
	C65.653503,182.484467 65.625862,182.574188 65.324326,182.682404 
	C64.689598,182.942276 64.356407,183.093918 64.023216,183.245575 
	C62.237923,180.591888 60.452629,177.938217 58.370682,175.133743 
	C58.524292,174.657791 58.974560,174.332626 59.987759,173.938507 
	C60.717144,173.586044 60.883598,173.302551 61.050049,173.019043 
	C61.050045,173.019043 60.992588,173.054489 61.006981,173.085037 
	C61.421303,173.142059 61.821232,173.168518 62.522224,173.203369 
z"/>
<path fill="#1288C5" opacity="1.000000" stroke="none" 
	d="
M29.997797,133.680389 
	C28.386164,133.609253 26.777958,133.213089 25.098629,132.459930 
	C26.411186,132.073257 27.794867,132.043579 29.594570,132.035553 
	C30.007467,132.489929 30.004345,132.922638 29.997797,133.680389 
z"/>
<path fill="#0C4378" opacity="1.000000" stroke="none" 
	d="
M60.815758,173.068069 
	C60.883598,173.302551 60.717144,173.586044 60.285034,173.870026 
	C60.109356,173.546722 60.296719,173.295578 60.815758,173.068069 
z"/>
<path fill="#21527A" opacity="1.000000" stroke="none" 
	d="
M91.070366,50.898796 
	C92.175629,51.026764 93.280899,51.154732 94.682350,51.137051 
	C93.683731,54.126404 92.024353,53.627495 90.414917,51.149017 
	C90.631157,50.827095 91.070366,50.898796 91.070366,50.898796 
z"/>
<path fill="#9F171E" opacity="1.000000" stroke="none" 
	d="
M91.257446,50.653732 
	C91.070366,50.898796 90.631157,50.827095 90.416229,50.771866 
	C90.174576,50.345036 90.147850,49.973434 90.154076,49.323524 
	C91.191391,49.009514 92.195763,48.973820 93.575180,48.893425 
	C93.114998,49.368713 92.279762,49.888691 91.257446,50.653732 
z"/>
<path fill="#21527A" opacity="1.000000" stroke="none" 
	d="
M85.896957,55.753387 
	C85.559021,55.607033 85.226166,55.144585 84.830551,54.390633 
	C85.145866,54.545181 85.523949,54.991238 85.896957,55.753387 
z"/>
<path fill="#21527A" opacity="1.000000" stroke="none" 
	d="
M86.766762,57.077984 
	C86.551506,57.104046 86.304070,56.849594 85.986542,56.336086 
	C86.189163,56.317177 86.461876,56.557323 86.766762,57.077984 
z"/>
<path fill="#21527A" opacity="1.000000" stroke="none" 
	d="
M87.793839,58.841759 
	C87.607910,58.883842 87.342155,58.686600 87.001389,58.242111 
	C87.188919,58.197384 87.451462,58.399910 87.793839,58.841759 
z"/>
<path fill="#DAE7E0" opacity="1.000000" stroke="none" 
	d="
M78.689499,56.689095 
	C77.092438,60.669216 74.635529,61.860340 70.909363,59.491577 
	C69.532364,58.616196 67.908867,58.128544 66.344177,56.873295 
	C66.903763,54.558254 67.516975,52.833973 68.130180,51.109695 
	C72.668861,50.766556 76.300270,52.212807 78.689499,56.689095 
z"/>
<path fill="#91665B" opacity="1.000000" stroke="none" 
	d="
M68.092896,50.692917 
	C67.516975,52.833973 66.903763,54.558254 66.129395,56.591930 
	C65.789650,56.937344 65.611076,56.973354 64.877869,56.918190 
	C63.484440,55.883373 62.645638,54.939732 61.834084,53.620689 
	C63.865513,51.420837 65.869698,49.596390 67.873886,47.771942 
	C67.934464,48.606674 67.995041,49.441402 68.092896,50.692917 
z"/>
<path fill="#325260" opacity="1.000000" stroke="none" 
	d="
M67.878403,47.586403 
	C65.869698,49.596390 63.865513,51.420837 61.566635,53.598579 
	C60.915104,53.900055 60.558266,53.848240 60.201424,53.796429 
	C59.650272,52.927719 59.099125,52.059006 58.303436,51.056519 
	C59.030216,49.795048 60.001541,48.667355 61.078880,47.220596 
	C62.345081,46.440575 63.505268,45.979618 64.863434,45.265778 
	C65.827347,45.601326 66.593292,46.189762 67.620636,46.903938 
	C67.882042,47.029686 67.882912,47.400867 67.878403,47.586403 
z"/>
<path fill="#05407C" opacity="1.000000" stroke="none" 
	d="
M68.008545,107.422943 
	C67.301758,107.940697 66.573090,108.030785 65.480194,108.171326 
	C64.584969,108.724808 64.053955,109.227852 63.279949,109.898262 
	C63.025158,103.907730 63.013359,97.749825 63.030750,91.130554 
	C68.101555,95.085396 67.282585,101.270142 68.008545,107.422943 
z"/>
<path fill="#50818D" opacity="1.000000" stroke="none" 
	d="
M60.143661,54.176781 
	C60.558266,53.848240 60.915104,53.900055 61.539391,53.973980 
	C62.645638,54.939732 63.484440,55.883373 64.613411,56.986923 
	C65.315193,60.837658 65.726807,64.528481 66.148277,68.616249 
	C64.774651,66.975304 63.013893,65.090904 62.106094,62.859497 
	C61.044479,60.249981 60.726494,57.337936 60.143661,54.176781 
z"/>
<path fill="#0E80B9" opacity="1.000000" stroke="none" 
	d="
M57.006977,80.994598 
	C57.132668,81.137230 57.251442,81.285332 57.370213,81.433441 
	C57.281559,81.385635 57.192905,81.337830 57.046684,81.152023 
	C56.989113,81.014015 57.000057,81.000084 57.006977,80.994598 
z"/>
<path fill="#0B4481" opacity="1.000000" stroke="none" 
	d="
M62.307755,111.010498 
	C62.226208,110.783066 62.409756,110.499947 62.833534,110.120789 
	C62.906792,110.334770 62.739819,110.644783 62.307755,111.010498 
z"/>
<path fill="#2B2A2A" opacity="1.000000" stroke="none" 
	d="
M64.060760,183.435654 
	C64.356407,183.093918 64.689598,182.942276 65.284668,182.707504 
	C65.540390,182.977341 65.534233,183.330292 65.052933,183.848846 
	C64.404976,184.013382 64.232162,184.012314 64.059341,184.011261 
	C64.059341,184.011261 64.098297,183.625732 64.060760,183.435654 
z"/>
<path fill="#221F24" opacity="1.000000" stroke="none" 
	d="
M63.877392,184.225571 
	C64.232162,184.012314 64.404976,184.013382 64.837929,184.024536 
	C64.766068,184.305466 64.434059,184.576263 63.775585,184.896194 
	C63.531227,184.776840 63.613335,184.608353 63.877392,184.225571 
z"/>
<path fill="#2B2A2A" opacity="1.000000" stroke="none" 
	d="
M65.955826,182.656235 
	C65.946121,182.068832 66.238731,181.653198 66.734795,181.073792 
	C67.110054,180.910233 67.281853,180.910416 67.711327,180.910553 
	C67.707314,181.426056 67.445625,181.941574 67.060196,182.719208 
	C66.710342,182.930222 66.484238,182.879105 65.955826,182.656235 
z"/>
</svg>